<?xml version="1.0" standalone="no"?>
<!DOCTYPE svg PUBLIC "-//W3C//DTD SVG 20010904//EN"
 "http://www.w3.org/TR/2001/REC-SVG-20010904/DTD/svg10.dtd">
<svg version="1.0" xmlns="http://www.w3.org/2000/svg"
 width="1008.000000pt" height="1008.000000pt" viewBox="0 0 1008.000000 1008.000000"
 preserveAspectRatio="xMidYMid meet">
<metadata>
Created by potrace 1.11, written by Peter Selinger 2001-2013
</metadata>
<g transform="translate(0.000000,1008.000000) scale(0.100000,-0.100000)"
fill="#000000" stroke="none">
<path d="M4478 9575 c-3 -3 -45 -11 -103 -20 -75 -12 -294 -119 -365 -178 -17
-15 -35 -27 -38 -27 -4 0 -44 -35 -89 -77 -81 -78 -156 -164 -203 -235 -14
-21 -45 -47 -70 -60 -25 -12 -53 -29 -64 -37 -10 -9 -20 -14 -23 -12 -3 1 -16
-6 -29 -18 -13 -11 -24 -18 -24 -13 0 4 -4 2 -8 -3 -4 -6 -20 -19 -36 -29 -91
-58 -217 -194 -254 -274 -9 -20 -20 -39 -23 -42 -9 -7 -38 -99 -45 -145 -12
-69 -11 -168 1 -222 7 -29 10 -54 8 -57 -3 -2 0 -13 6 -24 5 -10 12 -30 15
-43 10 -54 85 -225 115 -261 8 -10 10 -18 6 -18 -4 0 -1 -8 7 -17 8 -10 22
-30 31 -46 17 -26 17 -28 -5 -50 -18 -17 -33 -23 -58 -20 -242 22 -309 26
-485 26 -162 0 -340 -8 -409 -18 -78 -12 -112 -17 -126 -17 -8 0 -44 -6 -80
-13 -36 -7 -81 -16 -100 -19 -98 -15 -346 -90 -499 -150 -104 -41 -299 -136
-341 -166 -16 -11 -31 -20 -35 -20 -3 0 -33 -18 -66 -40 -33 -22 -65 -40 -70
-40 -5 0 -9 -4 -9 -8 0 -4 -15 -16 -33 -27 -17 -10 -34 -21 -37 -25 -3 -3 -21
-17 -40 -30 -19 -13 -40 -29 -46 -35 -6 -5 -29 -23 -50 -40 -60 -47 -325 -314
-369 -372 -21 -29 -43 -53 -47 -53 -4 0 -8 -6 -8 -13 0 -7 -8 -22 -18 -33 -9
-10 -26 -32 -36 -49 -11 -16 -23 -34 -28 -40 -18 -21 -56 -84 -90 -146 -60
-109 -62 -114 -64 -119 0 -3 -12 -30 -26 -60 -36 -78 -78 -202 -72 -212 3 -4
1 -8 -3 -8 -10 0 -16 -42 -16 -109 0 -34 5 -47 24 -62 42 -32 269 -148 334
-170 22 -8 42 -17 45 -20 3 -3 25 -13 50 -22 138 -48 143 -50 150 -51 3 -1 19
-7 35 -13 28 -11 100 -31 117 -33 4 -1 23 -7 43 -16 19 -8 37 -14 40 -14 3 0
6 0 8 -1 1 0 9 -2 17 -4 8 -1 42 -10 75 -18 33 -9 71 -18 85 -21 14 -3 39 -9
55 -13 17 -5 37 -9 45 -8 8 0 17 -3 20 -7 3 -4 21 -8 40 -9 19 -2 40 -5 45 -8
6 -3 19 -6 30 -7 38 -3 90 -12 105 -18 8 -3 33 -8 55 -10 22 -3 49 -7 60 -9
11 -3 47 -8 80 -12 33 -4 71 -9 85 -12 39 -6 148 -17 280 -28 41 -3 75 -7 77
-8 1 -1 -11 -27 -28 -57 -32 -61 -162 -322 -164 -330 -1 -3 -9 -23 -19 -45
-71 -160 -170 -488 -180 -600 -2 -18 -6 -37 -9 -42 -3 -5 -8 -31 -11 -58 -4
-28 -9 -66 -12 -85 -21 -138 -29 -276 -29 -510 0 -124 4 -270 9 -325 4 -55 9
-118 11 -140 2 -22 4 -40 5 -40 1 0 4 -18 6 -41 3 -39 18 -135 28 -181 2 -11
8 -43 12 -70 5 -26 9 -50 9 -53 1 -3 5 -23 10 -45 5 -22 10 -42 10 -45 1 -3 7
-25 15 -50 7 -25 14 -49 14 -55 1 -5 10 -35 21 -65 10 -30 20 -58 21 -62 1 -5
3 -10 4 -13 1 -3 3 -8 5 -12 1 -5 7 -21 13 -36 7 -16 12 -30 12 -32 0 -2 16
-38 35 -79 19 -42 35 -81 35 -86 0 -6 5 -10 10 -10 6 0 10 -6 10 -12 0 -11 34
-73 101 -188 93 -157 275 -369 455 -530 39 -34 252 -194 289 -217 89 -54 206
-123 235 -139 19 -10 38 -23 41 -27 3 -5 9 -8 13 -8 3 0 45 -18 93 -41 49 -23
90 -43 93 -43 3 -1 31 -13 64 -28 32 -15 60 -27 61 -27 1 0 20 -7 41 -16 22
-9 40 -16 41 -15 3 1 72 -24 108 -39 20 -9 91 -32 110 -36 6 -2 48 -14 95 -28
47 -14 96 -27 110 -30 14 -3 66 -14 115 -24 84 -19 157 -31 215 -38 14 -1 25
-3 25 -4 0 -4 91 -13 235 -25 108 -8 515 -4 515 5 0 1 20 3 45 5 73 6 154 19
225 35 28 7 61 14 74 16 13 3 32 9 43 15 10 5 18 8 18 5 0 -2 44 9 98 25 53
17 104 32 112 34 32 8 157 54 203 74 26 11 50 20 52 20 3 0 26 9 51 21 26 11
48 20 50 20 6 0 215 105 259 130 92 52 130 74 135 80 7 7 42 29 60 37 8 4 17
9 20 12 3 3 28 22 55 41 28 19 56 40 63 47 7 7 16 13 20 13 4 0 24 15 44 33
20 17 58 50 85 72 117 98 297 288 388 410 17 22 35 45 40 52 24 30 32 41 65
93 19 30 38 60 42 65 25 32 56 85 50 85 -4 0 -2 4 3 8 12 9 22 25 89 156 121
235 222 510 292 801 14 55 27 107 31 115 3 8 5 19 4 23 -1 5 5 43 14 85 8 42
17 88 19 102 3 14 7 34 10 46 2 11 7 45 10 75 4 30 9 70 12 89 3 19 7 52 9 73
2 22 6 41 8 44 3 2 16 -7 30 -21 15 -14 29 -26 32 -26 3 0 23 -13 43 -29 20
-16 57 -41 82 -55 43 -25 254 -129 295 -145 11 -5 34 -14 50 -22 17 -7 32 -13
35 -14 5 0 199 -70 230 -82 25 -10 95 -29 143 -38 10 -2 27 -7 37 -10 21 -7
51 -13 100 -21 19 -3 38 -8 41 -10 7 -4 294 -62 349 -70 19 -3 46 -8 60 -10
28 -6 54 -10 120 -18 25 -3 56 -7 70 -10 117 -21 373 -28 468 -11 75 12 141
47 144 73 3 36 -3 59 -31 112 -16 30 -33 73 -37 95 -4 22 -9 227 -10 455 -1
228 -4 435 -7 459 -4 24 -9 62 -12 85 -12 87 -39 220 -52 256 -4 8 -8 24 -10
35 -5 30 -54 159 -64 170 -5 5 -9 14 -9 21 0 17 -109 208 -121 212 -5 2 -9 8
-9 13 0 15 -100 136 -171 209 -93 94 -186 177 -264 235 -44 33 -47 35 -90 68
-57 44 -175 127 -180 127 -6 0 -65 40 -75 50 -10 11 -276 179 -293 185 -27 11
-20 22 30 47 53 26 154 121 200 188 34 49 105 190 96 190 -3 0 -1 6 4 13 10
13 51 123 59 160 6 24 6 25 22 82 6 22 13 51 16 65 2 14 9 45 15 70 13 60 20
97 26 145 11 83 16 101 41 152 43 90 55 168 37 254 -11 56 -48 154 -63 169 -3
3 -11 16 -19 30 -26 47 -121 166 -196 245 -41 44 -75 81 -75 83 0 2 -8 11 -19
20 -10 10 -30 48 -45 86 -30 76 -100 212 -122 237 -8 8 -14 19 -14 23 0 13
-61 87 -115 140 -84 82 -210 154 -298 170 -12 3 -22 5 -22 6 0 13 -225 18
-295 7 -25 -3 -58 -9 -75 -11 -16 -3 -50 -9 -75 -15 -70 -16 -80 -14 -80 14 0
14 -4 25 -10 25 -5 0 -10 6 -10 14 0 18 -65 77 -123 111 -25 14 -88 41 -140
59 -51 18 -98 35 -103 38 -5 3 -22 8 -39 12 -38 10 -63 32 -80 74 -8 18 -21
40 -30 48 -8 9 -28 32 -42 52 -35 46 -127 139 -173 174 -29 22 -185 109 -193
107 -1 0 -9 2 -17 5 -28 10 -125 35 -150 40 -14 2 -36 7 -50 10 -14 3 -41 8
-60 10 -59 8 -124 17 -147 22 -13 2 -35 6 -50 9 -16 3 -53 18 -83 34 -60 30
-147 65 -195 77 -16 4 -37 9 -45 11 -14 4 -114 14 -135 14 -71 0 -274 -52
-283 -73 -2 -5 -9 -8 -15 -8 -7 0 -47 -18 -91 -41 -88 -45 -75 -48 -156 31
-19 19 -53 49 -75 65 -21 17 -46 37 -55 45 -25 23 -67 47 -155 90 -102 49
-113 53 -167 63 -15 3 -33 9 -39 13 -12 7 -254 15 -261 9z"/>
</g>
</svg>
