<?xml version="1.0" encoding="UTF-8"?>
<svg width="252px" height="227px" viewBox="0 0 252 227" version="1.1" xmlns="http://www.w3.org/2000/svg" xmlns:xlink="http://www.w3.org/1999/xlink">
    <!-- Generator: Sketch 50.2 (55047) - http://www.bohemiancoding.com/sketch -->
    <title>Path</title>
    <desc>Created with Sketch.</desc>
    <defs></defs>
    <g id="Logo-and-inspiration" stroke="none" stroke-width="1" fill="none" fill-rule="evenodd">
        <g id="Logo" transform="translate(-1113.000000, -485.000000)" fill="#333333">
            <path d="M1313.16773,611.993351 C1322.69425,653.418737 1310.50805,684.398314 1276.60913,704.932081 C1255.68249,715.92522 1233.60084,715.92522 1217.48118,712.389255 C1193.17129,707.056708 1181.19872,691.659831 1174.91939,679.265975 C1168.64005,666.872119 1165.69707,656.782019 1164.33097,646.111357 C1163.34016,638.372122 1163.645,630.18778 1165.5885,620.153911 C1148.34381,624.722414 1128.44121,627.048967 1113.92493,623.601439 C1109.64548,620.305489 1112.24347,565.952283 1174.91939,552.789635 C1175.66435,551.748561 1175.76319,551.137552 1175.21591,550.956608 C1161.99083,540.385364 1161.29268,529.233919 1173.12144,517.502272 C1176.22828,504.267438 1189.31367,487.549026 1210.31937,498.980537 C1215.88506,492.991646 1219.97644,488.762125 1231.57749,490.876885 C1239.67988,489.565834 1247.92669,486.122442 1258.82449,495.682817 C1267.13409,495.435425 1270.91404,495.940255 1272.58425,498.980537 C1278.12231,495.769467 1289.91926,486.755363 1304.02436,504.418134 C1312.84507,508.854861 1320.88844,513.129591 1318.72219,522.18388 C1320.90477,532.590661 1321.89936,545.778891 1315.11555,550.956608 C1335.97181,555.782702 1348.76963,559.558881 1357.37308,572.413209 C1365.97654,585.267537 1366.30682,599.968135 1371.22577,603.363683 C1376.14472,606.75923 1368.52204,612.033573 1336.2732,614.990973 C1325.49596,615.080553 1317.79414,614.081345 1313.16773,611.993351 Z" id="Path" transform="translate(1242.592489, 601.836008) rotate(19.000000) translate(-1242.592489, -601.836008) "></path>
        </g>
    </g>
</svg>