<?xml version="1.0" encoding="UTF-8"?>
<svg width="335px" height="50px" viewBox="0 0 335 50" version="1.1" xmlns="http://www.w3.org/2000/svg" xmlns:xlink="http://www.w3.org/1999/xlink">
    <!-- Generator: Sketch 50.2 (55047) - http://www.bohemiancoding.com/sketch -->
    <title>Bleat at us Copy</title>
    <desc>Created with Sketch.</desc>
    <defs></defs>
    <g id="Page-design" stroke="none" stroke-width="1" fill="none" fill-rule="evenodd">
        <g id="Desktop-HD" transform="translate(-41.000000, -2270.000000)" fill="#F9DC5C">
            <g id="FOOTER" transform="translate(-7.000000, 2224.000000)">
                <path d="M73.85,84.3 C73.925,84.6 73.925,84.9 73.775,85.2 C73.625,85.425 73.625,85.65 73.625,85.875 C73.625,86.4 73.4,86.925 73.025,87.3 C72.95,88.2 72.875,89.175 71.9,89.7 C72.05,90.15 72.125,90.525 72.125,90.975 C71.9,91.275 71.675,91.65 71.375,91.95 C71.225,92.25 70.925,92.4 70.55,92.4 C70.325,92.55 70.175,92.7 69.95,92.85 C69.8,93.075 69.8,93.225 69.725,93.45 L69.35,93.45 L68.675,93.9 L68.45,94.35 C67.55,94.95 67.55,94.95 66.875,95.025 C66.35,95.325 65.825,95.4 65.3,95.625 C64.625,95.4 63.95,95.4 63.35,95.625 C62.825,95.775 62.375,95.775 61.85,95.85 L61.475,95.85 C60.35,95.7 59.3,95.85 58.175,95.775 C57.8,95.7 57.425,95.775 57.05,95.775 C56.375,95.7 55.7,95.7 55.1,95.7 C54.2,95.7 53.3,95.55 52.475,95.25 C52.1,95.1 51.725,95.025 51.425,94.8 C51.05,94.875 50.75,94.725 50.45,94.725 C50,94.575 49.85,94.275 49.775,93.9 C49.55,93.15 49.325,92.4 49.175,91.65 C48.8,89.925 48.725,88.125 48.65,86.4 C48.575,85.5 48.5,84.6 48.575,83.7 C48.575,82.65 48.65,81.6 48.575,80.475 C48.575,79.8 48.575,79.05 48.65,78.3 C48.65,76.95 48.8,75.6 48.725,74.325 C48.725,72.825 48.8,71.325 48.8,69.825 C48.725,69.15 48.8,68.475 48.875,67.8 C49.025,66.45 49.025,65.1 49.025,63.825 C49.025,63.3 49.1,62.775 49.1,62.25 C49.175,61.125 49.175,59.925 49.1,58.8 L49.1,55.95 C49.1,54.975 49.1,54.075 49.025,53.1 C48.95,52.425 49.025,51.75 48.95,51.15 L48.95,48.6 C48.95,48.375 48.875,48.225 48.8,48.075 C48.875,47.85 49.025,47.85 49.175,47.775 C50.075,47.55 50.9,47.55 51.8,47.625 C52.25,47.625 52.7,47.625 53.15,47.7 C53.375,47.775 53.6,47.85 53.75,47.925 C54.2,48.375 54.2,48.9 54.5,49.35 C54.65,49.5 54.8,49.425 54.95,49.35 C56,48.975 57.125,48.825 58.25,48.75 C58.925,48.675 59.6,48.525 60.2,48.6 C60.8,48.6 61.325,48.6 61.85,48.675 C62.45,48.75 62.975,48.975 63.5,49.275 C64.175,49.65 64.775,50.175 65.3,50.775 C65.525,51.075 65.675,51.3 65.9,51.6 C66.275,51.975 66.5,52.5 66.65,53.025 C66.8,53.325 66.95,53.625 67.025,53.85 C67.475,55.2 67.55,56.55 67.475,57.9 C67.475,58.725 67.325,59.475 67.25,60.3 C67.25,61.2 66.95,62.025 66.725,62.925 L66.725,63 C66.275,63.6 66.05,64.275 65.75,64.95 C65.675,65.025 65.6,65.175 65.525,65.25 C65.375,65.7 65.15,66.075 64.775,66.45 C64.775,66.525 64.7,66.525 64.7,66.6 C64.325,67.2 63.725,67.575 63.05,67.95 C62.675,68.175 62.225,68.4 61.85,68.775 C61.925,69 62.075,69.075 62.225,69.15 C62.45,69.225 62.675,69.375 62.9,69.45 C63.35,69.525 63.725,69.75 64.025,69.975 C64.25,70.05 64.4,70.125 64.55,70.2 C64.625,70.275 64.7,70.275 64.775,70.35 C65.375,70.8 66.125,71.1 66.725,71.625 C67.325,72.075 68,72.525 68.6,72.975 C69.125,73.425 69.575,73.875 69.875,74.475 C70.1,74.85 70.4,75.15 70.625,75.45 C70.85,75.825 71.075,76.275 71.375,76.65 C71.525,76.875 71.675,77.175 71.9,77.4 C72.125,77.7 72.35,78 72.35,78.45 L72.725,78.825 C72.725,79.125 72.8,79.425 72.875,79.8 C72.875,80.1 72.95,80.475 73.175,80.625 C73.4,81 73.25,81.375 73.325,81.75 C73.625,82.125 73.7,82.575 73.7,83.1 C73.7,83.475 73.7,83.85 73.85,84.3 Z M55.025,54.6 C55.175,55.875 55.175,57.15 55.25,58.5 C55.25,59.325 55.25,60.15 55.4,60.975 C55.475,61.575 55.55,62.175 55.475,62.775 C55.4,63.75 55.55,64.725 55.475,65.7 C55.475,65.85 55.475,65.925 55.7,66.075 C56,65.925 56.3,65.775 56.6,65.55 C57.05,65.175 57.5,64.725 58.025,64.425 C58.25,64.2 58.55,63.9 58.7,63.6 C59.3,62.7 59.9,61.725 60.2,60.675 C60.65,59.55 60.875,58.5 61.025,57.3 C61.175,55.875 61.175,54.525 60.875,53.1 C60.725,52.5 60.5,51.9 60.125,51.45 C59.825,51.3 59.6,51.225 59.375,51.225 C58.55,51.225 57.8,51.225 57.05,51.525 C56.3,51.825 55.625,52.275 54.95,52.65 C54.95,52.725 54.95,52.725 54.875,52.8 L54.875,53.1 C55.025,53.625 55.025,54.075 55.025,54.6 Z M64.4,83.4 C64.55,82.575 64.475,81.75 64.475,80.85 C64.4,80.25 64.325,79.65 64.175,79.05 C63.725,77.475 62.9,76.05 62,74.7 C61.625,74.025 61.025,73.575 60.425,73.2 C59.6,72.675 58.7,72.225 57.8,71.775 C57.35,71.625 56.975,71.4 56.525,71.25 C56.225,71.175 56,71.1 55.7,71.325 C55.55,72.15 55.625,72.975 55.625,73.8 C55.625,75.225 55.7,76.575 55.775,78 C55.925,79.35 55.85,80.625 55.925,81.975 C56,82.8 56.075,83.7 56.15,84.6 C56.15,85.425 56.3,86.25 56.3,87.15 L56.3,88.425 C56.3,89.1 56,89.7 55.7,90.3 C55.625,90.45 55.4,90.525 55.4,90.75 C55.55,90.9 55.775,90.825 55.925,90.825 C56.45,90.825 56.975,90.75 57.5,90.975 C57.8,90.75 58.1,90.675 58.475,90.6 C59.3,90.375 60.125,90.15 60.725,89.625 C60.8,89.55 60.875,89.55 60.95,89.475 C61.25,89.325 61.55,89.1 61.775,88.875 C62.3,88.35 62.825,87.75 63.35,87.225 C63.5,87.075 63.5,86.925 63.575,86.775 C64.025,85.65 64.325,84.525 64.4,83.4 Z M73.4,87.6 C73.475,87.45 73.475,87.3 73.625,87.225 C73.7,87.45 73.625,87.6 73.55,87.825 C73.4,87.825 73.4,87.675 73.4,87.6 Z M103.828804,93.225 C103.903804,93.375 103.828804,93.45 103.678804,93.6 C103.378804,93.525 103.078804,93.9 102.703804,93.825 C102.703804,93.675 102.853804,93.675 102.853804,93.6 C102.778804,93.45 102.703804,93.45 102.553804,93.525 C102.478804,93.675 102.628804,93.75 102.553804,93.9 C102.328804,94.05 102.028804,94.125 101.803804,94.2 C101.353804,94.5 100.828804,94.575 100.303804,94.725 C99.7788044,94.875 99.2538044,94.95 98.7288044,95.1 C98.2038044,95.25 97.6038044,95.25 97.0038044,95.4 C96.6288044,95.475 96.1788044,95.475 95.8038044,95.625 C95.3538044,95.7 94.9788044,95.625 94.5288044,95.7 C93.4038044,95.775 92.2788044,95.85 91.1538044,95.85 C90.1788044,95.925 89.2038044,96 88.2288044,95.925 C88.2288044,95.925 88.1538044,95.925 88.0788044,95.85 C88.0038044,95.85 88.2288044,95.775 88.1538044,95.7 C88.0038044,95.625 88.0038044,95.85 87.9288044,95.85 C87.1038044,95.85 86.2788044,95.775 85.4538044,95.625 C83.7288044,95.325 82.0788044,94.95 80.5788044,93.975 C80.2788044,93.975 80.0538044,93.825 79.8288044,93.6 C79.6038044,93.375 79.3038044,93.15 79.0038044,92.925 C78.9288044,92.925 78.8538044,92.775 78.7788044,92.7 C78.3288044,92.1 77.9538044,91.35 77.5788044,90.675 C77.3538044,90.3 77.0538044,90 76.9038044,89.625 C76.9038044,89.475 76.9788044,89.475 76.9788044,89.325 C76.6788044,89.175 76.6038044,89.025 76.8288044,88.725 C76.7538044,88.65 76.6788044,88.5 76.6788044,88.425 C76.7538044,88.2 76.6788044,88.05 76.6788044,87.825 C76.6038044,87.45 76.7538044,87.075 76.7538044,86.7 C76.7538044,86.55 76.6788044,86.1 76.6788044,86.025 C76.7538044,85.8 76.9038044,85.875 77.0538044,85.875 C76.9788044,85.725 76.7538044,85.65 76.7538044,85.425 C76.7538044,84.675 76.9038044,83.925 76.7538044,83.175 C76.8288044,83.1 76.9788044,83.025 76.8288044,82.8 C76.7538044,82.65 76.9038044,82.5 76.8288044,82.275 C76.8288044,82.2 76.9038044,82.2 76.9788044,82.125 C76.9038044,82.125 76.8288044,82.2 76.8288044,82.125 C76.6788044,81.975 76.8288044,81.9 76.8288044,81.75 C76.6038044,81.525 76.9038044,81.15 76.6788044,80.925 C76.6788044,80.775 76.7538044,80.7 76.7538044,80.625 C76.8288044,80.475 76.9038044,80.625 77.0538044,80.55 C76.9038044,80.4 76.6788044,80.475 76.6788044,80.25 C76.7538044,80.25 76.8288044,80.25 76.9038044,80.325 C76.9788044,80.4 76.9788044,80.4 77.1288044,80.4 C77.0538044,80.175 76.9038044,80.025 76.8288044,79.875 C76.7538044,79.8 76.7538044,79.725 76.7538044,79.65 C76.8288044,79.425 76.7538044,79.275 76.6788044,79.05 C76.7538044,78.975 76.9038044,78.9 76.8288044,78.825 C76.4538044,78.45 76.9038044,78 76.7538044,77.7 C76.7538044,77.55 76.8288044,77.475 76.8288044,77.4 C76.4538044,77.1 76.8288044,76.65 76.6788044,76.275 C76.7538044,76.2 76.7538044,76.05 76.8288044,76.05 C76.8288044,75.9 76.6788044,75.825 76.6788044,75.675 C76.7538044,75.525 76.6038044,75.225 76.8288044,75 C76.6788044,74.925 76.6038044,74.775 76.6038044,74.625 L76.7538044,74.475 C76.5288044,74.175 76.5288044,73.725 76.5288044,73.35 C76.5288044,72.975 76.4538044,72.6 76.4538044,72.225 C76.4538044,71.925 76.5288044,71.625 76.3788044,71.4 L76.6038044,71.175 C76.5288044,71.025 76.4538044,70.95 76.4538044,70.8 C76.4538044,70.725 76.5288044,70.725 76.5288044,70.65 C76.5288044,70.275 76.5288044,69.975 76.3038044,69.6 C76.4538044,69.6 76.4538044,69.675 76.5288044,69.75 C76.5288044,69.6 76.5288044,69.525 76.6038044,69.45 C76.5288044,69.375 76.3788044,69.375 76.3788044,69.225 C76.4538044,69.15 76.4538044,69.3 76.5288044,69.3 C76.6038044,69.075 76.6038044,69.075 76.4538044,68.925 C76.4538044,68.775 76.6038044,68.85 76.6038044,68.85 C76.6788044,68.4 76.2288044,68.1 76.4538044,67.65 C76.3038044,67.5 76.3038044,67.35 76.5288044,67.275 C76.3788044,67.125 76.3788044,67.05 76.3788044,66.9 C76.4538044,66.75 76.5288044,66.75 76.5288044,66.6 C76.3788044,65.85 76.2288044,65.1 76.4538044,64.275 C76.2288044,63.9 76.3788044,63.45 76.3038044,63 C76.3038044,62.925 76.4538044,62.85 76.4538044,62.775 L76.4538044,62.625 C76.3038044,62.325 76.3788044,62.025 76.3788044,61.8 C76.3788044,60.9 76.3038044,60.075 76.3788044,59.25 C76.3788044,58.725 76.3038044,58.2 76.3788044,57.75 C76.3788044,57.3 76.3038044,56.775 76.3788044,56.325 C76.4538044,55.5 76.5288044,54.675 76.5288044,53.85 C76.4538044,53.025 76.5288044,52.125 76.4538044,51.3 C76.4538044,50.7 76.5288044,50.1 76.6038044,49.5 C76.6038044,49.125 76.6788044,48.6 76.5288044,48.15 C76.6038044,48.075 76.6788044,47.925 76.7538044,47.85 C77.2038044,47.55 77.7288044,47.475 78.3288044,47.475 C78.5538044,47.475 78.8538044,47.475 79.1538044,47.4 C79.5288044,47.25 79.9788044,47.325 80.4288044,47.25 C80.6538044,47.25 80.8788044,47.175 81.1788044,47.25 C81.2538044,47.4 81.4788044,47.4 81.6288044,47.4 C81.8538044,47.325 82.0788044,47.4 82.3038044,47.475 C82.6038044,47.55 82.8288044,47.775 83.1288044,47.775 C83.2038044,47.85 83.3538044,48 83.4288044,48.15 L83.6538044,48.15 L83.8788044,48.375 C84.0288044,48.6 84.3288044,48.75 84.4788044,49.05 C84.5538044,49.2 84.5538044,49.275 84.5538044,49.425 C84.6288044,50.025 84.7038044,50.625 84.7038044,51.3 C84.7038044,51.675 84.7788044,52.125 84.7788044,52.5 C84.7788044,52.8 84.7788044,53.025 84.9288044,53.325 C85.0038044,53.55 85.0038044,53.775 84.8538044,54 C85.0788044,54.45 85.0038044,54.9 85.0788044,55.35 C85.0788044,55.8 85.0038044,56.25 85.0038044,56.7 C85.0038044,56.775 84.9288044,56.925 84.9288044,57.075 C85.0038044,57.6 85.1538044,58.125 84.9288044,58.725 C85.0038044,58.875 85.0788044,59.1 84.9288044,59.325 C84.8538044,59.475 85.0038044,59.625 85.0038044,59.775 C85.0038044,60.525 85.0038044,61.275 85.0788044,62.1 C85.0788044,62.175 85.0788044,62.325 85.0038044,62.475 C84.9288044,62.55 84.9288044,62.7 84.9288044,62.775 C85.0038044,63 85.0038044,63.15 85.0038044,63.375 L85.0038044,64.425 C85.0788044,64.725 84.9288044,65.025 84.9288044,65.325 C84.9288044,65.625 85.0038044,65.925 84.9288044,66.225 C84.8538044,66.375 85.0038044,66.45 85.0788044,66.6 L84.8538044,66.825 C84.9288044,66.975 85.0038044,67.2 84.7788044,67.35 C84.8538044,67.8 84.9288044,68.175 84.8538044,68.625 C84.7038044,69.15 84.8538044,69.75 84.7038044,70.35 C84.7038044,70.575 84.7788044,70.8 84.7788044,70.95 C84.6288044,71.775 84.6288044,72.6 84.7788044,73.275 C84.7788044,73.8 84.5538044,74.25 84.5538044,74.775 C84.6288044,74.85 84.4788044,75 84.4788044,75.15 C84.4038044,75.525 84.5538044,75.975 84.5538044,76.35 C84.4788044,76.575 84.5538044,76.875 84.4038044,77.1 C84.3288044,77.25 84.3288044,77.325 84.4038044,77.475 C84.4038044,77.85 84.4788044,78.3 84.4788044,78.75 C84.4038044,78.9 84.4788044,79.125 84.3288044,79.35 C84.4038044,79.5 84.4788044,79.575 84.4788044,79.725 C84.3288044,79.95 84.4788044,80.25 84.4788044,80.475 C84.4038044,80.925 84.5538044,81.375 84.4788044,81.75 C84.4788044,82.05 84.4038044,82.275 84.5538044,82.5 C84.6288044,82.65 84.5538044,82.875 84.4038044,83.025 C84.4788044,83.4 84.7038044,83.7 84.4788044,84.15 C84.7788044,84.825 84.4038044,85.575 84.5538044,86.325 C84.4788044,86.325 84.4038044,86.25 84.3288044,86.25 C84.2538044,86.175 84.2538044,86.1 84.2538044,86.025 C84.1788044,85.875 84.3288044,85.8 84.2538044,85.65 C84.1788044,85.65 84.0288044,85.8 83.9538044,85.65 C83.8038044,85.5 83.8788044,85.275 83.7288044,85.05 C83.5788044,85.35 83.5038044,85.65 83.8038044,85.875 C83.8788044,85.95 83.9538044,85.95 84.0288044,85.95 C84.0288044,86.1 84.1788044,86.25 84.1038044,86.475 C84.3288044,86.325 84.4788044,86.475 84.6288044,86.475 C84.7038044,86.775 84.8538044,87 84.7038044,87.3 C84.8538044,87.375 84.8538044,87.6 85.0038044,87.675 C84.9288044,87.825 84.9288044,87.975 84.9288044,88.125 C84.8538044,88.275 84.7038044,88.125 84.5538044,88.2 C84.5538044,88.35 84.7038044,88.275 84.7788044,88.425 C84.5538044,88.575 84.4788044,88.35 84.2538044,88.35 C84.3288044,88.5 84.4038044,88.575 84.4788044,88.725 C84.6288044,88.725 84.7788044,88.575 84.8538044,88.725 C84.9288044,88.725 84.9288044,88.575 85.0788044,88.575 C85.1538044,89.025 85.3788044,89.325 85.6788044,89.625 C85.8288044,89.7 85.9788044,89.925 85.9788044,90.075 C86.0538044,90.3 86.2038044,90.45 86.3538044,90.6 C86.2788044,90.675 86.2038044,90.6 86.1288044,90.675 C86.0538044,90.6 86.1288044,90.45 85.9788044,90.45 C85.8288044,90.675 85.6038044,90.825 85.7538044,91.125 C85.8288044,90.975 85.9038044,90.825 85.9788044,90.825 C86.0538044,90.825 86.1288044,91.05 86.2788044,90.9 C86.3538044,90.975 86.2788044,91.125 86.3538044,91.125 C86.4288044,91.05 86.5038044,90.975 86.5038044,90.9 C86.7288044,90.975 86.6538044,91.125 86.6538044,91.2 C86.8038044,91.425 86.9538044,91.35 87.1038044,91.35 C87.4038044,91.575 87.6288044,91.8 88.0038044,91.875 C88.1538044,91.95 88.3038044,92.175 88.5288044,92.25 C88.8288044,92.475 89.2038044,92.475 89.5788044,92.475 C89.7288044,92.475 89.8788044,92.475 89.9538044,92.625 C90.0288044,92.625 90.1038044,92.55 90.1788044,92.55 C90.8538044,92.775 91.5288044,92.625 92.1288044,92.625 C92.8038044,92.7 93.4788044,92.625 94.0788044,92.625 C94.3788044,92.625 94.7538044,92.7 95.0538044,92.625 C95.2788044,92.55 95.5788044,92.625 95.8038044,92.625 C96.2538044,92.625 96.7038044,92.55 97.1538044,92.475 C97.8288044,92.4 98.5038044,92.325 99.2538044,92.25 C99.7788044,92.25 100.303804,92.1 100.828804,92.175 C100.978804,92.175 101.128804,92.1 101.278804,92.1 C101.353804,92.1 101.428804,92.175 101.428804,92.25 C101.878804,92.25 102.328804,92.25 102.703804,92.1 C102.853804,92.175 102.928804,92.325 103.003804,92.475 C103.003804,92.55 103.153804,92.475 103.228804,92.625 C103.228804,92.7 103.303804,92.775 103.303804,92.85 C103.453804,93 103.603804,93.15 103.828804,93.225 Z M84.4038044,85.425 C84.3288044,85.275 84.3288044,85.05 84.1788044,84.975 C84.1038044,85.05 84.2538044,85.05 84.1788044,85.125 C84.1788044,85.2 84.0288044,85.275 84.1038044,85.35 C84.1788044,85.425 84.3288044,85.425 84.4038044,85.425 Z M84.4038044,58.05 C84.2538044,58.05 84.1038044,57.975 84.0288044,57.9 C84.0288044,58.05 84.1038044,58.125 84.1788044,58.275 C84.1788044,58.35 83.9538044,58.425 84.1038044,58.65 C84.1038044,58.425 84.4038044,58.425 84.4038044,58.05 Z M77.3538044,86.7 C77.5788044,86.4 77.4288044,86.175 77.3538044,85.95 C77.2788044,85.875 77.1288044,85.8 77.0538044,85.875 C77.2038044,86.025 77.1288044,86.25 77.2788044,86.4 C77.2038044,86.475 76.9788044,86.475 77.0538044,86.625 C77.1288044,86.7 77.2038044,86.7 77.3538044,86.7 Z M77.5788044,80.925 C77.5788044,80.775 77.5038044,80.625 77.5788044,80.55 C77.4288044,80.55 77.4288044,80.25 77.2788044,80.325 C77.1288044,80.475 77.2788044,80.55 77.3538044,80.7 C77.2038044,80.775 77.1288044,80.925 77.2038044,81.075 C77.3538044,81 77.4288044,80.925 77.5788044,80.925 Z M81.2538044,88.425 C81.3288044,88.275 81.4788044,88.2 81.4788044,88.05 C81.4038044,87.975 81.3288044,87.975 81.2538044,87.9 C81.1038044,87.975 81.0288044,87.975 80.8788044,87.975 C80.9538044,88.2 80.9538044,88.425 81.2538044,88.425 Z M82.6038044,86.175 C82.8288044,86.1 82.6788044,86.4 82.9038044,86.475 C82.8288044,86.25 82.8288044,86.1 82.8288044,85.95 C82.9788044,85.725 83.2038044,85.65 83.3538044,85.35 C83.1288044,85.35 82.9038044,85.425 82.6788044,85.275 C82.6038044,85.425 82.6038044,85.575 82.5288044,85.65 C82.4538044,85.65 82.3788044,85.575 82.2288044,85.5 C82.1538044,85.575 82.0788044,85.575 82.0788044,85.725 C82.3788044,85.65 82.3788044,86.1 82.6788044,85.95 C82.6788044,86.1 82.5288044,86.1 82.6038044,86.175 Z M83.5803249,87.9385005 C83.5793321,87.9261634 83.5788044,87.9133456 83.5788044,87.9 C83.5777944,87.90101 83.5768116,87.9020336 83.5758551,87.9030702 L83.5803249,87.9385005 Z M84.0288044,87.075 C84.2538044,87.225 84.2538044,87.6 84.5538044,87.675 L84.5538044,87.3 C84.3288044,87.225 84.3288044,87 84.0288044,87.075 Z M84.2538044,90.9 C84.5538044,90.675 84.6288044,90.45 84.4038044,90.3 C84.4038044,90.45 84.3288044,90.45 84.2538044,90.525 L84.2538044,90.9 Z M129.832609,93 C129.982609,93.075 130.057609,93.225 130.207609,93.225 C130.282609,93.225 130.282609,93.075 130.357609,93.075 C130.432609,93.075 130.357609,93.225 130.432609,93.225 C129.832609,93.75 129.307609,94.2 128.557609,94.35 C128.632609,94.275 128.632609,94.2 128.707609,94.05 C128.482609,93.975 128.257609,93.975 128.107609,93.9 C128.107609,94.05 128.182609,94.05 128.257609,94.125 C128.257609,94.2 128.107609,94.275 128.182609,94.35 C128.332609,94.35 128.257609,94.2 128.332609,94.275 C128.482609,94.275 128.482609,94.275 128.557609,94.35 C128.482609,94.425 128.407609,94.5 128.257609,94.5 C127.882609,94.575 127.432609,94.65 127.057609,94.8 C126.982609,94.875 126.757609,94.875 126.607609,94.8 C126.382609,95.025 125.857609,95.175 125.632609,95.025 C125.557609,95.1 125.482609,95.25 125.332609,95.175 C125.182609,94.95 125.182609,94.95 124.957609,94.95 C124.882609,94.95 124.957609,95.025 124.957609,95.1 C124.957609,95.1 124.957609,95.175 125.032609,95.175 C124.807609,95.475 124.582609,95.175 124.432609,95.325 C124.207609,95.4 124.057609,95.55 123.907609,95.325 C123.682609,95.25 123.757609,95.475 123.607609,95.475 C123.307609,95.4 123.082609,95.625 122.782609,95.625 C122.707609,95.325 122.632609,95.25 122.332609,95.175 C122.407609,95.4 122.557609,95.475 122.557609,95.625 C122.182609,95.775 121.807609,95.925 121.432609,95.775 C121.207609,95.85 120.982609,96 120.757609,95.775 C120.457609,96 120.157609,95.775 119.932609,95.7 C119.857609,95.625 119.782609,95.55 119.707609,95.4 C119.632609,95.325 119.557609,95.4 119.482609,95.4 C119.407609,95.475 119.557609,95.55 119.557609,95.7 C119.482609,95.85 119.407609,95.85 119.332609,95.85 C119.182609,95.85 119.257609,95.7 119.182609,95.625 C119.032609,95.4 118.807609,95.7 118.582609,95.55 C118.432609,95.625 118.432609,95.775 118.282609,95.775 C118.207609,95.775 118.132609,95.55 117.982609,95.55 C117.907609,95.55 117.832609,95.7 117.607609,95.55 C117.607609,95.475 117.532609,95.25 117.382609,95.25 C117.307609,95.4 117.382609,95.475 117.307609,95.55 C116.782609,95.55 116.182609,95.475 115.657609,95.25 C115.582609,95.25 115.507609,95.25 115.507609,95.325 C115.357609,95.25 115.132609,95.25 114.982609,95.25 C114.907609,95.1 114.907609,95.025 114.832609,94.95 C114.682609,94.875 114.607609,95.025 114.532609,95.025 C114.307609,95.025 114.157609,94.95 114.157609,94.65 C114.007609,94.875 113.932609,94.8 113.782609,94.725 C113.107609,94.425 112.432609,94.05 111.757609,93.6 C111.382609,93.3 111.007609,92.925 110.632609,92.55 C110.257609,92.175 109.957609,91.8 109.657609,91.425 C109.282609,90.9 108.982609,90.45 108.682609,89.85 C108.307609,89.1 108.007609,88.2 107.707609,87.3 C107.332609,86.25 107.032609,85.2 106.807609,84.15 C106.732609,83.55 106.657609,83.025 106.582609,82.425 C106.432609,81.525 106.357609,80.55 106.207609,79.575 C106.207609,79.05 106.132609,78.6 106.132609,78.075 C106.057609,77.475 105.982609,76.8 105.982609,76.2 C105.907609,75.3 105.757609,74.325 105.757609,73.35 L105.757609,72.75 C105.757609,72.525 105.682609,72.375 105.832609,72.225 C105.532609,71.625 105.757609,70.95 105.682609,70.35 C105.682609,70.275 105.757609,70.2 105.832609,70.05 C105.682609,69.6 105.682609,69.15 105.682609,68.7 C105.682609,67.95 105.757609,67.2 105.832609,66.45 C105.832609,65.775 105.907609,65.1 106.057609,64.425 C106.132609,63.675 106.282609,62.925 106.357609,62.175 C106.507609,61.125 106.732609,60.075 106.882609,59.025 C106.957609,58.575 107.032609,58.2 107.107609,57.75 C107.107609,57.375 107.257609,57 107.332609,56.625 C107.557609,55.5 107.782609,54.375 108.157609,53.25 C108.532609,52.125 108.982609,51.075 109.657609,50.1 C110.032609,49.5 110.332609,48.975 110.857609,48.45 C111.232609,48.15 111.682609,48 112.207609,47.925 C112.882609,47.925 113.632609,47.85 114.307609,48.075 C114.607609,48.15 114.982609,48.15 115.282609,48.15 C115.732609,48.225 116.182609,48.375 116.632609,48.375 C117.007609,48.45 117.307609,48.675 117.607609,48.675 L117.757609,48.675 C118.357609,49.05 119.032609,49.05 119.632609,49.275 C119.782609,49.35 119.932609,49.275 120.082609,49.275 C120.307609,49.425 120.607609,49.35 120.907609,49.35 C121.657609,49.275 122.482609,49.275 123.232609,49.275 L125.182609,49.275 C125.707609,49.275 126.307609,49.425 126.832609,49.5 L126.982609,49.5 C127.282609,49.875 127.732609,49.725 128.182609,49.8 C128.332609,49.8 128.557609,49.8 128.707609,49.875 C128.782609,50.025 128.857609,50.1 128.857609,50.25 C128.782609,50.4 128.632609,50.55 128.632609,50.775 C128.482609,50.85 128.407609,50.85 128.332609,51 C128.182609,51.225 127.957609,51.525 127.657609,51.45 C127.657609,51.6 127.807609,51.525 127.807609,51.675 C127.657609,51.75 127.507609,51.75 127.357609,51.825 C126.832609,52.425 125.707609,53.4 125.332609,53.4 C125.182609,53.55 125.032609,53.625 124.807609,53.7 C124.432609,54 123.907609,54.075 123.457609,54.15 C123.382609,54.15 123.232609,54.225 123.232609,54.3 C123.082609,54.375 122.932609,54.45 122.782609,54.45 C122.482609,54.45 122.182609,54.6 121.957609,54.825 C121.807609,54.9 121.657609,54.975 121.507609,54.975 C120.907609,55.2 120.307609,55.425 119.707609,55.725 C119.332609,55.875 118.957609,56.1 118.507609,56.325 C118.357609,56.4 118.132609,56.475 117.982609,56.475 C117.682609,56.475 117.457609,56.625 117.232609,56.7 C117.082609,56.7 117.007609,56.775 117.007609,56.85 C116.932609,57.075 116.857609,57.225 116.632609,57.3 C116.707609,57.525 116.707609,57.75 116.557609,57.975 C116.482609,58.2 116.482609,58.425 116.407609,58.725 C116.257609,59.25 116.182609,59.85 116.107609,60.375 C116.032609,60.825 115.957609,61.35 115.957609,61.875 C115.807609,62.025 115.807609,62.25 115.807609,62.475 C115.807609,62.925 115.807609,63.3 115.732609,63.75 L115.732609,63.975 C115.732609,64.275 115.732609,64.575 115.582609,64.875 C115.582609,64.95 115.507609,65.025 115.582609,65.1 C115.657609,65.4 115.582609,65.7 115.507609,66 C115.432609,66.225 115.432609,66.375 115.507609,66.6 C115.432609,67.125 115.432609,67.725 115.432609,68.25 C115.357609,68.325 115.357609,68.4 115.357609,68.475 C115.132609,68.775 115.207609,69.15 115.207609,69.525 C115.207609,69.825 115.132609,70.125 115.132609,70.425 C115.132609,70.875 115.057609,71.25 115.132609,71.55 C115.057609,71.7 114.907609,71.55 114.832609,71.7 C114.832609,71.7 114.832609,71.775 114.907609,71.775 C115.282609,72.15 115.732609,71.925 116.182609,71.85 C116.557609,71.85 116.857609,71.7 117.157609,71.775 C117.532609,71.55 117.907609,71.55 118.282609,71.55 L119.407609,71.325 C120.232609,71.175 120.982609,70.875 121.807609,70.725 C122.107609,70.725 122.407609,70.65 122.782609,70.575 C123.232609,70.425 123.757609,70.35 124.207609,70.275 L126.007609,70.05 C127.132609,69.975 128.332609,69.975 129.457609,70.05 L131.707609,70.275 L132.307609,70.275 C132.532609,70.35 132.607609,70.425 132.757609,70.575 C132.682609,70.875 132.682609,71.1 132.532609,71.325 C132.232609,71.4 132.082609,71.625 131.857609,71.775 C131.782609,71.925 131.857609,72 131.857609,72.15 C131.782609,72.225 131.857609,72.45 131.632609,72.525 C131.482609,72.6 131.332609,72.525 131.182609,72.675 C131.107609,72.75 131.182609,72.9 131.032609,72.975 C130.957609,73.05 130.732609,73.05 130.582609,73.275 C130.432609,74.175 129.532609,74.4 128.707609,74.625 L128.557609,74.625 L128.482609,74.55 C128.332609,74.625 128.332609,74.775 128.182609,74.85 C127.807609,74.775 127.432609,75.15 126.982609,75 C126.832609,75.375 126.532609,75.375 126.232609,75.375 C125.932609,75.375 125.707609,75.525 125.332609,75.6 C125.257609,75.45 125.107609,75.525 124.882609,75.525 C124.957609,75.3 125.182609,75.375 125.332609,75.375 C125.407609,75.225 125.257609,75.075 125.182609,74.925 C125.107609,75 125.032609,75.225 124.882609,75.15 C124.807609,75.3 124.807609,75.45 124.732609,75.6 C124.432609,75.525 124.657609,75.375 124.582609,75.3 C124.432609,75.15 124.357609,75.375 124.207609,75.375 C124.132609,75.375 124.207609,75.225 124.132609,75.15 C124.057609,75.225 123.982609,75.225 123.832609,75.225 C123.832609,75.525 123.457609,75.6 123.307609,75.825 C123.007609,75.825 122.782609,75.9 122.482609,75.975 C122.032609,76.125 121.657609,76.2 121.282609,76.35 C121.132609,76.425 120.982609,76.35 120.832609,76.2 C120.307609,76.35 119.782609,76.05 119.182609,76.2 C119.107609,76.275 118.807609,76.125 118.657609,76.275 C118.432609,76.275 118.432609,76.125 118.357609,76.125 C118.207609,76.125 118.207609,76.275 118.057609,76.275 C117.982609,76.35 117.907609,76.275 117.757609,76.2 C117.607609,76.275 117.532609,76.425 117.307609,76.275 C117.307609,76.275 117.382609,76.2 117.307609,76.125 C117.307609,76.05 117.157609,76.05 117.082609,75.975 C117.007609,76.05 116.932609,76.05 116.932609,76.125 C116.557609,76.05 116.257609,76.275 115.882609,76.125 C115.807609,76.125 115.807609,75.975 115.657609,76.05 C115.657609,76.125 115.507609,76.275 115.432609,76.425 C115.282609,76.5 115.057609,76.425 114.982609,76.575 C115.057609,76.725 115.132609,76.65 115.282609,76.725 C115.432609,77.025 115.207609,77.4 115.357609,77.7 C115.432609,77.775 115.582609,77.775 115.582609,77.925 C115.582609,78.525 115.657609,79.05 115.732609,79.275 C115.732609,79.425 115.582609,79.5 115.657609,79.65 C115.882609,79.95 115.807609,80.25 115.732609,80.625 C116.032609,80.85 115.957609,81.15 116.032609,81.45 C115.957609,81.6 115.882609,81.6 115.807609,81.75 C115.807609,82.2 116.257609,82.575 116.332609,83.025 C116.182609,83.1 116.032609,83.025 115.882609,83.1 C115.957609,83.25 116.032609,83.1 116.107609,83.175 C116.182609,83.325 116.407609,83.4 116.482609,83.55 C116.257609,84 116.557609,84.525 116.332609,84.975 C116.407609,85.05 116.557609,85.125 116.557609,85.275 C116.332609,85.35 116.407609,85.575 116.182609,85.725 C116.257609,86.025 116.482609,86.325 116.332609,86.625 C116.557609,86.7 116.782609,86.85 117.007609,87 C116.932609,87.225 117.007609,87.525 116.857609,87.75 C116.782609,87.525 116.857609,87.225 116.632609,87.075 C116.557609,87.075 116.482609,87 116.407609,87.075 C116.332609,87.15 116.332609,87.225 116.407609,87.225 C116.632609,87.375 116.632609,87.675 116.782609,87.825 C116.932609,87.975 116.782609,88.2 116.857609,88.35 C117.007609,88.35 116.932609,88.2 117.007609,88.125 C117.232609,88.35 117.307609,88.575 117.457609,88.875 C117.382609,88.95 117.382609,89.1 117.457609,89.25 C117.307609,89.475 117.157609,89.25 117.007609,89.325 C117.007609,89.55 117.157609,89.475 117.157609,89.475 C117.307609,89.7 117.232609,89.85 117.457609,89.925 C117.532609,89.925 117.532609,89.775 117.607609,89.7 C117.682609,89.85 117.757609,90 117.907609,90.075 C117.832609,90.375 118.057609,90.6 117.832609,90.825 C117.907609,90.9 117.982609,90.825 118.057609,90.825 C118.132609,90.75 118.057609,90.525 118.282609,90.525 C118.357609,90.525 118.282609,90.675 118.357609,90.75 C118.657609,90.825 118.882609,91.125 119.107609,91.275 C119.482609,91.5 119.782609,91.5 120.157609,91.5 C121.432609,91.5 122.632609,91.275 123.832609,90.975 C125.032609,90.675 126.232609,90.225 127.432609,90 C128.332609,89.775 129.157609,89.55 129.982609,89.325 C130.132609,89.25 130.282609,89.25 130.432609,89.175 C130.582609,89.1 130.807609,89.025 130.957609,89.175 C131.107609,89.1 130.957609,89.1 131.032609,88.95 C131.482609,88.725 132.007609,88.5 132.457609,88.2 C133.207609,87.6 133.957609,86.925 134.632609,86.25 C134.782609,86.025 134.857609,85.8 135.007609,85.5 C135.157609,85.725 135.307609,85.95 135.457609,86.1 C135.532609,86.175 135.532609,86.325 135.457609,86.4 C135.307609,86.55 135.307609,86.7 135.232609,86.925 C135.232609,87.3 135.007609,87.6 134.782609,87.825 C134.632609,87.975 134.632609,88.125 134.632609,88.275 C134.707609,88.5 134.482609,88.65 134.557609,88.875 C134.407609,89.025 134.257609,89.25 134.482609,89.475 C134.332609,89.625 134.182609,89.85 134.182609,90 C133.957609,90.075 133.732609,90.15 133.582609,90.3 C133.582609,90.375 133.657609,90.45 133.657609,90.6 C133.657609,90.675 133.507609,90.825 133.507609,90.975 C132.907609,91.125 132.607609,91.65 132.232609,92.175 C132.082609,92.4 131.782609,92.55 131.557609,92.7 C131.407609,92.85 131.332609,92.85 131.257609,93 C130.807609,93.15 130.807609,93.15 130.582609,93 C130.882609,92.775 130.957609,92.4 131.332609,92.4 C131.407609,92.25 131.482609,92.1 131.557609,92.025 C131.257609,91.875 131.182609,92.25 130.957609,92.175 C130.882609,92.25 130.957609,92.4 130.882609,92.475 C130.657609,92.475 130.432609,92.475 130.357609,92.7 C130.207609,92.775 130.207609,92.625 130.132609,92.7 C130.132609,92.85 130.057609,93 129.832609,93 Z M129.832609,93 C129.832605,92.9999966 129.757607,92.925 129.682609,92.925 C129.682609,93.15 129.682609,93.15 129.607609,93.225 C129.382609,93.225 129.232609,93.225 129.082609,93.3 C129.082609,93.525 129.382609,93.45 129.457609,93.6 C129.532609,93.45 129.532609,93.3 129.607609,93.225 C129.607609,93.375 129.607609,93.45 129.757609,93.525 C129.832609,93.375 129.757609,93.15 129.832609,93 Z M121.132609,95.55 C121.357609,95.625 121.582609,95.625 121.807609,95.7 L122.032609,95.475 C121.957609,95.4 121.957609,95.25 121.882609,95.175 C121.732609,95.25 121.732609,95.4 121.657609,95.475 C121.582609,95.475 121.582609,95.475 121.507609,95.4 C121.507609,95.25 121.582609,95.175 121.507609,95.025 C121.357609,95.175 121.057609,94.95 120.907609,95.175 C120.982609,95.325 121.132609,95.25 121.132609,95.4 C121.207609,95.4 121.057609,95.475 121.132609,95.55 Z M121.657609,75.375 C121.882609,75.45 121.732609,75.675 121.807609,75.975 C121.882609,75.825 121.957609,75.675 122.107609,75.75 C122.182609,75.675 122.107609,75.6 122.182609,75.6 C122.182609,75.6 122.257609,75.6 122.332609,75.675 C122.332609,75.45 122.557609,75.45 122.632609,75.3 C122.407609,75 122.407609,75.375 122.257609,75.375 C122.107609,75.375 122.107609,75.3 121.957609,75.3 C121.882609,75.3 121.732609,75.225 121.657609,75.375 Z M121.207609,75.6 C120.832609,75.3 120.532609,75.3 120.382609,75.675 C120.682609,75.825 120.907609,75.825 121.207609,75.6 Z M123.232609,75.45 C123.307609,75.375 123.382609,75.3 123.307609,75.15 C123.232609,75.15 123.082609,75.15 122.932609,75.075 C122.857609,75.075 122.782609,75.15 122.782609,75.225 C122.932609,75.225 122.857609,75.375 122.932609,75.45 L123.232609,75.45 Z M130.057609,72.975 C129.982609,72.9 129.907609,72.975 129.757609,73.05 C129.832609,73.125 129.832609,73.2 129.832609,73.35 C129.907609,73.425 129.982609,73.425 130.132609,73.5 C130.132609,73.425 130.207609,73.425 130.282609,73.35 C130.207609,73.275 130.132609,73.275 130.057609,73.2 C130.057609,73.2 130.132609,73.125 130.057609,72.975 Z M107.557609,85.2 C107.332609,85.2 107.332609,85.425 107.332609,85.575 L107.707609,85.575 C107.557609,85.425 107.632609,85.35 107.557609,85.2 Z M112.432609,88.65 C112.507609,88.725 112.582609,88.8 112.657609,88.95 C112.732609,88.95 112.882609,89.1 113.032609,89.025 C113.032609,88.95 113.032609,88.875 112.957609,88.8 C112.807609,88.875 112.657609,88.65 112.432609,88.65 Z M109.582609,71.1 C109.432609,71.25 109.507609,71.4 109.582609,71.55 C109.732609,71.475 109.807609,71.4 109.807609,71.175 C109.732609,71.1 109.657609,71.1 109.582609,71.1 Z M111.907609,87 C111.982609,87.075 112.132609,87.075 112.282609,87.075 C112.207609,86.925 112.132609,86.775 111.982609,86.625 C111.907609,86.7 111.832609,86.85 111.907609,87 Z M120.232609,95.25 C120.082609,95.25 120.007609,95.325 119.932609,95.4 C120.007609,95.55 120.082609,95.7 120.307609,95.55 C120.307609,95.475 120.307609,95.4 120.232609,95.25 Z M106.732609,62.1 C106.582609,61.95 106.807609,61.8 106.807609,61.725 C106.732609,61.575 106.657609,61.575 106.582609,61.65 C106.657609,61.8 106.507609,61.95 106.507609,62.1 C106.582609,62.175 106.582609,62.175 106.732609,62.1 Z M125.032609,94.725 C124.957609,94.425 124.807609,94.65 124.657609,94.575 C124.657609,94.875 124.732609,94.875 125.032609,94.725 Z M116.557609,85.275 C116.557609,85.5 116.632609,85.8 116.707609,86.025 L116.482609,86.025 C116.407609,85.725 116.482609,85.5 116.557609,85.275 Z M164.761413,92.7 C164.761413,92.85 164.761413,93.075 164.611413,93.15 C164.461413,93.375 164.461413,93.675 164.311413,93.9 C163.711413,94.125 163.336413,94.65 162.886413,95.025 C162.736413,95.1 162.586413,95.1 162.511413,95.1 L162.061413,95.325 C161.686413,95.4 161.311413,95.175 160.936413,95.25 C160.336413,95.55 159.811413,95.4 159.211413,95.1 C158.986413,94.95 158.761413,94.725 158.611413,94.425 C158.236413,93.6 157.936413,92.775 157.636413,91.95 C157.186413,90.525 156.811413,89.1 156.436413,87.75 C156.211413,87.075 156.061413,86.325 155.911413,85.65 C155.536413,84.075 155.236413,82.575 154.936413,81 C154.861413,80.775 154.861413,80.55 154.786413,80.4 C154.636413,80.325 154.486413,80.325 154.336413,80.325 C153.661413,80.475 152.986413,80.475 152.311413,80.325 C151.861413,80.175 151.336413,80.1 150.886413,80.1 C150.586413,80.1 150.361413,80.1 150.136413,80.025 C149.836413,79.95 149.536413,79.875 149.236413,79.95 C149.011413,79.95 148.786413,79.875 148.561413,79.8 C148.036413,79.65 147.511413,79.725 146.911413,79.8 C146.911413,79.8 146.836413,79.8 146.761413,79.875 C146.686413,80.025 146.611413,80.25 146.611413,80.4 C146.536413,81.15 146.311413,81.9 146.086413,82.575 L146.086413,82.875 C146.086413,83.25 146.011413,83.625 145.936413,84 C145.636413,84.9 145.561413,85.8 145.336413,86.7 C145.261413,87.15 145.111413,87.525 145.036413,87.9 C144.961413,88.05 144.961413,88.2 144.886413,88.275 C144.661413,89.4 144.211413,90.525 143.836413,91.575 C143.761413,91.875 143.686413,92.25 143.611413,92.55 C143.536413,92.85 143.386413,93.075 143.236413,93.375 C143.011413,93.675 142.786413,93.975 142.411413,94.125 C141.736413,94.425 140.986413,94.5 140.236413,94.35 C139.861413,94.275 139.561413,94.2 139.336413,94.125 C138.811413,93.825 138.436413,93.45 137.986413,93.3 C137.686413,93.15 137.611413,92.85 137.611413,92.55 C137.611413,92.25 137.686413,91.95 137.686413,91.725 C138.211413,89.925 138.586413,88.125 138.886413,86.25 C139.036413,84.9 139.336413,83.55 139.561413,82.275 C139.786413,81.225 139.936413,80.25 140.011413,79.2 C140.161413,78.075 140.461413,77.025 140.611413,75.9 C140.836413,74.85 141.061413,73.8 141.286413,72.825 C141.436413,72 141.586413,71.1 141.736413,70.275 C141.961413,69.15 142.186413,68.025 142.486413,66.9 L142.486413,66.825 C142.561413,66 142.786413,65.175 142.936413,64.35 C142.936413,64.2 143.011413,64.125 143.011413,63.975 C143.161413,63.45 143.311413,62.925 143.386413,62.325 C143.461413,61.725 143.611413,61.125 143.836413,60.45 C143.836413,60.225 143.911413,60 143.986413,59.775 C144.061413,59.025 144.286413,58.275 144.511413,57.525 L144.736413,56.625 C144.736413,56.25 144.811413,55.875 144.961413,55.575 C145.261413,54.675 145.486413,53.7 145.711413,52.8 C145.861413,52.35 146.011413,51.825 146.161413,51.375 C146.236413,51.15 146.311413,50.925 146.311413,50.7 C146.311413,50.325 146.461413,49.95 146.611413,49.575 C146.836413,49.125 147.136413,48.6 147.361413,48.15 C147.586413,47.85 147.811413,47.55 148.036413,47.175 C148.186413,46.875 148.411413,46.65 148.861413,46.65 C149.536413,47.025 150.286413,46.95 150.961413,47.25 C151.936413,47.025 152.686413,47.325 153.361413,47.925 C153.811413,48.3 154.036413,48.75 154.336413,49.2 C154.486413,49.575 154.636413,50.025 154.786413,50.4 C155.011413,50.925 155.161413,51.45 155.386413,51.975 C155.761413,52.95 155.986413,53.925 156.211413,54.975 C156.286413,55.65 156.511413,56.25 156.736413,56.925 C156.886413,57.675 157.111413,58.425 157.411413,59.1 C157.786413,60.075 157.936413,61.05 158.236413,62.025 C158.536413,62.625 158.761413,63.225 158.986413,63.825 C159.136413,64.2 159.286413,64.5 159.361413,64.8 C159.586413,65.7 159.811413,66.525 160.036413,67.425 L160.711413,70.125 C160.711413,70.425 160.786413,70.8 160.861413,71.175 C161.011413,71.925 161.311413,72.75 161.386413,73.5 C161.461413,73.95 161.536413,74.325 161.536413,74.775 L161.761413,75.675 C161.986413,76.65 162.211413,77.7 162.361413,78.675 C162.511413,79.35 162.736413,80.025 162.886413,80.775 C162.961413,81 163.036413,81.15 163.036413,81.375 C162.961413,81.675 163.111413,81.9 163.111413,82.2 C163.336413,83.175 163.486413,84.225 163.636413,85.2 C163.711413,85.65 163.861413,86.1 163.936413,86.55 C164.086413,87.3 164.236413,88.05 164.386413,88.725 C164.461413,89.1 164.461413,89.4 164.461413,89.7 C164.386413,90.225 164.536413,90.75 164.611413,91.2 C164.761413,91.725 164.761413,92.175 164.761413,92.7 Z M152.461413,70.425 C152.536413,70.425 152.686413,70.425 152.836413,70.275 C152.761413,70.2 152.761413,70.125 152.761413,69.975 C152.536413,68.775 152.236413,67.5 152.011413,66.225 C151.861413,65.325 151.636413,64.5 151.336413,63.675 C151.111413,62.85 150.811413,62.1 150.736413,61.2 C150.661413,60.9 150.586413,60.6 150.361413,60.3 C150.136413,60.375 150.136413,60.525 150.136413,60.675 C150.061413,61.05 149.911413,61.425 149.836413,61.725 C149.761413,62.25 149.611413,62.7 149.536413,63.15 C149.461413,63.675 149.386413,64.2 149.161413,64.725 C149.161413,65.025 149.236413,65.4 149.086413,65.7 C149.011413,66.075 149.011413,66.45 148.936413,66.75 C148.936413,67.275 148.786413,67.725 148.636413,68.175 C148.561413,68.25 148.486413,68.4 148.486413,68.55 C148.336413,69.225 148.411413,69.825 148.336413,70.5 C148.336413,70.5 148.336413,70.575 148.411413,70.575 C148.486413,70.725 148.561413,70.725 148.711413,70.725 C148.861413,70.65 149.086413,70.65 149.311413,70.5 C150.211413,70.125 151.111413,70.05 152.086413,70.35 C152.236413,70.35 152.311413,70.425 152.461413,70.425 Z M187.840218,91.875 C187.465218,92.025 187.315218,92.4 187.090218,92.7 C187.015218,92.925 186.865218,93.075 186.715218,93.15 C186.490218,93.3 186.340218,93.525 186.190218,93.75 C185.815218,94.425 185.215218,94.65 184.465218,94.65 C184.015218,94.65 183.565218,94.8 183.265218,95.1 C182.890218,95.325 182.515218,95.55 182.065218,95.475 C181.690218,95.475 181.315218,95.625 181.015218,95.85 C180.940218,95.925 180.940218,95.925 180.865218,95.925 C180.865218,95.85 180.790218,95.85 180.790218,95.775 C180.565218,94.2 180.340218,92.55 180.415218,90.975 C180.490218,89.625 180.415218,88.35 180.490218,87.075 C180.490218,86.1 180.415218,85.05 180.490218,84.075 C180.715218,82.05 180.640218,80.1 180.715218,78.075 C180.790218,76.725 180.790218,75.3 180.940218,73.95 C181.015218,72.9 181.090218,71.925 181.090218,70.875 C181.090218,69.375 181.240218,67.875 181.165218,66.375 C181.165218,65.775 181.165218,65.175 181.240218,64.575 C181.465218,63.225 181.315218,61.8 181.390218,60.45 C181.465218,59.1 181.615218,57.75 181.615218,56.4 C181.615218,56.25 181.615218,56.025 181.465218,55.875 C181.240218,55.875 180.940218,55.95 180.640218,55.95 C180.040218,56.025 179.440218,55.8 178.840218,55.65 C178.690218,55.575 178.465218,55.5 178.315218,55.575 C178.090218,55.575 178.015218,55.425 177.790218,55.35 C177.415218,55.5 176.890218,55.35 176.440218,55.425 C175.990218,55.425 175.465218,55.35 175.015218,55.2 C174.640218,55.125 174.265218,55.2 173.890218,55.2 C173.740218,55.125 173.665218,55.125 173.515218,55.125 C173.440218,55.125 173.365218,55.05 173.290218,54.975 C173.065218,55.275 172.765218,55.125 172.540218,55.05 C172.165218,54.9 171.715218,54.9 171.340218,54.75 C170.890218,54.675 170.365218,54.525 169.915218,54.375 C169.765218,54.3 169.690218,54.15 169.540218,54.075 C169.165218,54 168.865218,53.7 168.490218,53.55 C168.040218,53.25 167.665218,52.875 167.290218,52.425 C166.915218,51.9 166.540218,51.375 166.315218,50.775 C166.165218,50.475 166.090218,50.175 165.715218,49.95 C166.990218,49.65 168.265218,49.425 169.465218,49.275 C169.840218,49.2 170.215218,49.125 170.665218,49.05 C170.740218,49.05 170.815218,49.05 170.890218,48.975 C171.790218,48.9 172.690218,48.75 173.665218,48.675 C174.190218,48.525 174.790218,48.525 175.315218,48.6 C176.065218,48.6 176.665218,48.45 177.415218,48.375 L179.965218,48.375 C180.490218,48.375 180.940218,48.3 181.465218,48.225 C182.365218,48.075 183.265218,48.225 184.240218,48.225 C184.990218,48.225 185.815218,48.15 186.640218,48.075 C187.090218,48 187.615218,48 188.140218,48 L190.840218,47.775 C191.815218,47.7 192.790218,47.55 193.690218,47.55 C195.040218,47.475 196.315218,47.4 197.665218,47.475 C198.640218,47.55 199.615218,47.55 200.590218,47.7 C201.265218,47.775 201.865218,47.925 202.540218,48 C202.915218,48.075 203.365218,48.15 203.740218,48.15 C203.890218,48.15 204.040218,48.15 204.265218,48.225 C204.190218,48.525 204.190218,48.9 204.265218,49.2 C204.340218,49.425 204.415218,49.65 204.415218,49.875 C204.415218,50.25 204.340218,50.55 204.265218,50.85 C204.190218,51.075 204.190218,51.3 204.340218,51.525 C204.415218,51.75 204.415218,51.975 204.340218,52.2 C204.190218,52.35 204.190218,52.5 204.190218,52.725 C204.265218,53.025 204.190218,53.25 204.190218,53.475 C204.040218,53.85 203.890218,54.225 203.815218,54.6 C203.815218,55.05 203.590218,55.275 203.290218,55.65 C202.915218,55.575 202.540218,55.95 202.090218,56.025 C201.565218,56.175 201.115218,56.4 200.515218,56.175 C200.290218,56.1 200.065218,56.1 199.915218,56.1 C199.240218,56.175 198.640218,56.025 197.965218,56.175 C197.440218,56.25 196.915218,56.1 196.315218,56.175 C195.490218,56.25 194.590218,56.25 193.690218,56.325 C192.940218,56.4 192.190218,56.625 191.440218,56.625 C190.990218,56.625 190.465218,56.55 190.015218,56.625 C189.490218,56.775 189.190218,57.075 189.190218,57.6 C189.190218,58.05 189.265218,58.5 189.265218,58.95 C189.190218,59.7 189.340218,60.45 189.340218,61.2 C189.265218,61.875 189.340218,62.475 189.415218,63.15 C189.490218,63.6 189.565218,63.975 189.490218,64.425 C189.415218,64.725 189.415218,65.1 189.415218,65.4 C189.415218,65.925 189.265218,66.45 189.265218,67.05 L189.265218,67.575 C189.415218,68.025 189.190218,68.475 189.115218,68.925 C189.115218,69.15 189.115218,69.45 189.190218,69.75 C189.265218,70.2 189.040218,70.65 189.115218,71.1 C189.115218,71.7 189.040218,72.225 189.115218,72.75 C189.190218,73.05 189.190218,73.275 189.115218,73.5 C189.115218,74.175 189.115218,74.775 189.190218,75.375 C189.265218,75.525 189.265218,75.75 189.265218,75.9 C189.115218,76.5 189.190218,77.175 189.265218,77.775 C189.265218,77.85 189.340218,77.925 189.340218,77.925 C189.040218,78.675 189.265218,79.35 189.265218,80.1 C189.190218,80.55 189.190218,81.075 189.190218,81.6 L189.190218,81.75 C188.965218,82.425 188.965218,83.1 188.890218,83.775 C188.890218,84.6 188.965218,85.425 188.740218,86.25 C188.590218,86.85 188.515218,87.525 188.590218,88.125 C188.590218,88.575 188.590218,88.95 188.440218,89.4 C188.215218,89.85 188.215218,90.45 188.065218,90.975 L187.840218,91.875 Z M172.165218,53.775 C172.165218,53.625 172.090218,53.55 171.940218,53.55 C171.790218,53.625 171.790218,53.775 171.790218,53.925 C171.865218,54 171.865218,54.15 172.015218,54.15 C172.090218,54 172.165218,53.925 172.165218,53.775 Z M254.322826,92.7 C254.322826,92.85 254.322826,93.075 254.172826,93.15 C254.022826,93.375 254.022826,93.675 253.872826,93.9 C253.272826,94.125 252.897826,94.65 252.447826,95.025 C252.297826,95.1 252.147826,95.1 252.072826,95.1 L251.622826,95.325 C251.247826,95.4 250.872826,95.175 250.497826,95.25 C249.897826,95.55 249.372826,95.4 248.772826,95.1 C248.547826,94.95 248.322826,94.725 248.172826,94.425 C247.797826,93.6 247.497826,92.775 247.197826,91.95 C246.747826,90.525 246.372826,89.1 245.997826,87.75 C245.772826,87.075 245.622826,86.325 245.472826,85.65 C245.097826,84.075 244.797826,82.575 244.497826,81 C244.422826,80.775 244.422826,80.55 244.347826,80.4 C244.197826,80.325 244.047826,80.325 243.897826,80.325 C243.222826,80.475 242.547826,80.475 241.872826,80.325 C241.422826,80.175 240.897826,80.1 240.447826,80.1 C240.147826,80.1 239.922826,80.1 239.697826,80.025 C239.397826,79.95 239.097826,79.875 238.797826,79.95 C238.572826,79.95 238.347826,79.875 238.122826,79.8 C237.597826,79.65 237.072826,79.725 236.472826,79.8 C236.472826,79.8 236.397826,79.8 236.322826,79.875 C236.247826,80.025 236.172826,80.25 236.172826,80.4 C236.097826,81.15 235.872826,81.9 235.647826,82.575 L235.647826,82.875 C235.647826,83.25 235.572826,83.625 235.497826,84 C235.197826,84.9 235.122826,85.8 234.897826,86.7 C234.822826,87.15 234.672826,87.525 234.597826,87.9 C234.522826,88.05 234.522826,88.2 234.447826,88.275 C234.222826,89.4 233.772826,90.525 233.397826,91.575 C233.322826,91.875 233.247826,92.25 233.172826,92.55 C233.097826,92.85 232.947826,93.075 232.797826,93.375 C232.572826,93.675 232.347826,93.975 231.972826,94.125 C231.297826,94.425 230.547826,94.5 229.797826,94.35 C229.422826,94.275 229.122826,94.2 228.897826,94.125 C228.372826,93.825 227.997826,93.45 227.547826,93.3 C227.247826,93.15 227.172826,92.85 227.172826,92.55 C227.172826,92.25 227.247826,91.95 227.247826,91.725 C227.772826,89.925 228.147826,88.125 228.447826,86.25 C228.597826,84.9 228.897826,83.55 229.122826,82.275 C229.347826,81.225 229.497826,80.25 229.572826,79.2 C229.722826,78.075 230.022826,77.025 230.172826,75.9 C230.397826,74.85 230.622826,73.8 230.847826,72.825 C230.997826,72 231.147826,71.1 231.297826,70.275 C231.522826,69.15 231.747826,68.025 232.047826,66.9 L232.047826,66.825 C232.122826,66 232.347826,65.175 232.497826,64.35 C232.497826,64.2 232.572826,64.125 232.572826,63.975 C232.722826,63.45 232.872826,62.925 232.947826,62.325 C233.022826,61.725 233.172826,61.125 233.397826,60.45 C233.397826,60.225 233.472826,60 233.547826,59.775 C233.622826,59.025 233.847826,58.275 234.072826,57.525 L234.297826,56.625 C234.297826,56.25 234.372826,55.875 234.522826,55.575 C234.822826,54.675 235.047826,53.7 235.272826,52.8 C235.422826,52.35 235.572826,51.825 235.722826,51.375 C235.797826,51.15 235.872826,50.925 235.872826,50.7 C235.872826,50.325 236.022826,49.95 236.172826,49.575 C236.397826,49.125 236.697826,48.6 236.922826,48.15 C237.147826,47.85 237.372826,47.55 237.597826,47.175 C237.747826,46.875 237.972826,46.65 238.422826,46.65 C239.097826,47.025 239.847826,46.95 240.522826,47.25 C241.497826,47.025 242.247826,47.325 242.922826,47.925 C243.372826,48.3 243.597826,48.75 243.897826,49.2 C244.047826,49.575 244.197826,50.025 244.347826,50.4 C244.572826,50.925 244.722826,51.45 244.947826,51.975 C245.322826,52.95 245.547826,53.925 245.772826,54.975 C245.847826,55.65 246.072826,56.25 246.297826,56.925 C246.447826,57.675 246.672826,58.425 246.972826,59.1 C247.347826,60.075 247.497826,61.05 247.797826,62.025 C248.097826,62.625 248.322826,63.225 248.547826,63.825 C248.697826,64.2 248.847826,64.5 248.922826,64.8 C249.147826,65.7 249.372826,66.525 249.597826,67.425 L250.272826,70.125 C250.272826,70.425 250.347826,70.8 250.422826,71.175 C250.572826,71.925 250.872826,72.75 250.947826,73.5 C251.022826,73.95 251.097826,74.325 251.097826,74.775 L251.322826,75.675 C251.547826,76.65 251.772826,77.7 251.922826,78.675 C252.072826,79.35 252.297826,80.025 252.447826,80.775 C252.522826,81 252.597826,81.15 252.597826,81.375 C252.522826,81.675 252.672826,81.9 252.672826,82.2 C252.897826,83.175 253.047826,84.225 253.197826,85.2 C253.272826,85.65 253.422826,86.1 253.497826,86.55 C253.647826,87.3 253.797826,88.05 253.947826,88.725 C254.022826,89.1 254.022826,89.4 254.022826,89.7 C253.947826,90.225 254.097826,90.75 254.172826,91.2 C254.322826,91.725 254.322826,92.175 254.322826,92.7 Z M242.022826,70.425 C242.097826,70.425 242.247826,70.425 242.397826,70.275 C242.322826,70.2 242.322826,70.125 242.322826,69.975 C242.097826,68.775 241.797826,67.5 241.572826,66.225 C241.422826,65.325 241.197826,64.5 240.897826,63.675 C240.672826,62.85 240.372826,62.1 240.297826,61.2 C240.222826,60.9 240.147826,60.6 239.922826,60.3 C239.697826,60.375 239.697826,60.525 239.697826,60.675 C239.622826,61.05 239.472826,61.425 239.397826,61.725 C239.322826,62.25 239.172826,62.7 239.097826,63.15 C239.022826,63.675 238.947826,64.2 238.722826,64.725 C238.722826,65.025 238.797826,65.4 238.647826,65.7 C238.572826,66.075 238.572826,66.45 238.497826,66.75 C238.497826,67.275 238.347826,67.725 238.197826,68.175 C238.122826,68.25 238.047826,68.4 238.047826,68.55 C237.897826,69.225 237.972826,69.825 237.897826,70.5 C237.897826,70.5 237.897826,70.575 237.972826,70.575 C238.047826,70.725 238.122826,70.725 238.272826,70.725 C238.422826,70.65 238.647826,70.65 238.872826,70.5 C239.772826,70.125 240.672826,70.05 241.647826,70.35 C241.797826,70.35 241.872826,70.425 242.022826,70.425 Z M277.401631,91.875 C277.026631,92.025 276.876631,92.4 276.651631,92.7 C276.576631,92.925 276.426631,93.075 276.276631,93.15 C276.051631,93.3 275.901631,93.525 275.751631,93.75 C275.376631,94.425 274.776631,94.65 274.026631,94.65 C273.576631,94.65 273.126631,94.8 272.826631,95.1 C272.451631,95.325 272.076631,95.55 271.626631,95.475 C271.251631,95.475 270.876631,95.625 270.576631,95.85 C270.501631,95.925 270.501631,95.925 270.426631,95.925 C270.426631,95.85 270.351631,95.85 270.351631,95.775 C270.126631,94.2 269.901631,92.55 269.976631,90.975 C270.051631,89.625 269.976631,88.35 270.051631,87.075 C270.051631,86.1 269.976631,85.05 270.051631,84.075 C270.276631,82.05 270.201631,80.1 270.276631,78.075 C270.351631,76.725 270.351631,75.3 270.501631,73.95 C270.576631,72.9 270.651631,71.925 270.651631,70.875 C270.651631,69.375 270.801631,67.875 270.726631,66.375 C270.726631,65.775 270.726631,65.175 270.801631,64.575 C271.026631,63.225 270.876631,61.8 270.951631,60.45 C271.026631,59.1 271.176631,57.75 271.176631,56.4 C271.176631,56.25 271.176631,56.025 271.026631,55.875 C270.801631,55.875 270.501631,55.95 270.201631,55.95 C269.601631,56.025 269.001631,55.8 268.401631,55.65 C268.251631,55.575 268.026631,55.5 267.876631,55.575 C267.651631,55.575 267.576631,55.425 267.351631,55.35 C266.976631,55.5 266.451631,55.35 266.001631,55.425 C265.551631,55.425 265.026631,55.35 264.576631,55.2 C264.201631,55.125 263.826631,55.2 263.451631,55.2 C263.301631,55.125 263.226631,55.125 263.076631,55.125 C263.001631,55.125 262.926631,55.05 262.851631,54.975 C262.626631,55.275 262.326631,55.125 262.101631,55.05 C261.726631,54.9 261.276631,54.9 260.901631,54.75 C260.451631,54.675 259.926631,54.525 259.476631,54.375 C259.326631,54.3 259.251631,54.15 259.101631,54.075 C258.726631,54 258.426631,53.7 258.051631,53.55 C257.601631,53.25 257.226631,52.875 256.851631,52.425 C256.476631,51.9 256.101631,51.375 255.876631,50.775 C255.726631,50.475 255.651631,50.175 255.276631,49.95 C256.551631,49.65 257.826631,49.425 259.026631,49.275 C259.401631,49.2 259.776631,49.125 260.226631,49.05 C260.301631,49.05 260.376631,49.05 260.451631,48.975 C261.351631,48.9 262.251631,48.75 263.226631,48.675 C263.751631,48.525 264.351631,48.525 264.876631,48.6 C265.626631,48.6 266.226631,48.45 266.976631,48.375 L269.526631,48.375 C270.051631,48.375 270.501631,48.3 271.026631,48.225 C271.926631,48.075 272.826631,48.225 273.801631,48.225 C274.551631,48.225 275.376631,48.15 276.201631,48.075 C276.651631,48 277.176631,48 277.701631,48 L280.401631,47.775 C281.376631,47.7 282.351631,47.55 283.251631,47.55 C284.601631,47.475 285.876631,47.4 287.226631,47.475 C288.201631,47.55 289.176631,47.55 290.151631,47.7 C290.826631,47.775 291.426631,47.925 292.101631,48 C292.476631,48.075 292.926631,48.15 293.301631,48.15 C293.451631,48.15 293.601631,48.15 293.826631,48.225 C293.751631,48.525 293.751631,48.9 293.826631,49.2 C293.901631,49.425 293.976631,49.65 293.976631,49.875 C293.976631,50.25 293.901631,50.55 293.826631,50.85 C293.751631,51.075 293.751631,51.3 293.901631,51.525 C293.976631,51.75 293.976631,51.975 293.901631,52.2 C293.751631,52.35 293.751631,52.5 293.751631,52.725 C293.826631,53.025 293.751631,53.25 293.751631,53.475 C293.601631,53.85 293.451631,54.225 293.376631,54.6 C293.376631,55.05 293.151631,55.275 292.851631,55.65 C292.476631,55.575 292.101631,55.95 291.651631,56.025 C291.126631,56.175 290.676631,56.4 290.076631,56.175 C289.851631,56.1 289.626631,56.1 289.476631,56.1 C288.801631,56.175 288.201631,56.025 287.526631,56.175 C287.001631,56.25 286.476631,56.1 285.876631,56.175 C285.051631,56.25 284.151631,56.25 283.251631,56.325 C282.501631,56.4 281.751631,56.625 281.001631,56.625 C280.551631,56.625 280.026631,56.55 279.576631,56.625 C279.051631,56.775 278.751631,57.075 278.751631,57.6 C278.751631,58.05 278.826631,58.5 278.826631,58.95 C278.751631,59.7 278.901631,60.45 278.901631,61.2 C278.826631,61.875 278.901631,62.475 278.976631,63.15 C279.051631,63.6 279.126631,63.975 279.051631,64.425 C278.976631,64.725 278.976631,65.1 278.976631,65.4 C278.976631,65.925 278.826631,66.45 278.826631,67.05 L278.826631,67.575 C278.976631,68.025 278.751631,68.475 278.676631,68.925 C278.676631,69.15 278.676631,69.45 278.751631,69.75 C278.826631,70.2 278.601631,70.65 278.676631,71.1 C278.676631,71.7 278.601631,72.225 278.676631,72.75 C278.751631,73.05 278.751631,73.275 278.676631,73.5 C278.676631,74.175 278.676631,74.775 278.751631,75.375 C278.826631,75.525 278.826631,75.75 278.826631,75.9 C278.676631,76.5 278.751631,77.175 278.826631,77.775 C278.826631,77.85 278.901631,77.925 278.901631,77.925 C278.601631,78.675 278.826631,79.35 278.826631,80.1 C278.751631,80.55 278.751631,81.075 278.751631,81.6 L278.751631,81.75 C278.526631,82.425 278.526631,83.1 278.451631,83.775 C278.451631,84.6 278.526631,85.425 278.301631,86.25 C278.151631,86.85 278.076631,87.525 278.151631,88.125 C278.151631,88.575 278.151631,88.95 278.001631,89.4 C277.776631,89.85 277.776631,90.45 277.626631,90.975 L277.401631,91.875 Z M261.726631,53.775 C261.726631,53.625 261.651631,53.55 261.501631,53.55 C261.351631,53.625 261.351631,53.775 261.351631,53.925 C261.426631,54 261.426631,54.15 261.576631,54.15 C261.651631,54 261.726631,53.925 261.726631,53.775 Z M347.78424,51.525 C348.00924,51.45 348.23424,51.45 348.38424,51.3 C348.53424,51.45 348.75924,51.525 348.90924,51.525 C349.13424,52.35 348.90924,53.325 349.88424,53.85 C349.80924,54.225 349.73424,54.6 349.65924,54.9 C349.43424,54.975 349.20924,54.975 349.20924,55.2 C349.28424,55.425 349.50924,55.275 349.58424,55.425 C349.73424,55.8 349.58424,56.175 349.50924,56.475 C349.43424,57 349.43424,57.525 349.50924,58.05 C349.58424,58.5 349.58424,58.95 349.50924,59.4 C349.50924,59.925 349.58424,60.375 349.58424,60.9 C349.58424,61.425 349.73424,61.95 349.80924,62.55 C349.95924,62.7 350.10924,62.85 350.25924,62.925 C350.48424,63.15 350.85924,63 350.93424,63.45 C350.85924,63.675 350.70924,63.9 350.55924,64.2 C350.63424,64.8 350.48424,65.475 350.25924,66.075 C350.03424,66.525 350.03424,66.975 350.10924,67.5 C350.10924,67.95 350.10924,68.4 350.03424,68.85 C350.03424,69 350.03424,69.075 350.10924,69.15 C350.33424,69.3 350.40924,69 350.63424,69.075 L350.63424,69.15 C350.63424,70.05 350.48424,70.875 350.40924,71.775 C350.33424,72.375 350.25924,72.9 350.18424,73.425 C350.10924,73.95 350.10924,74.4 350.03424,74.925 C349.88424,75.6 349.88424,76.275 349.88424,77.025 C349.88424,77.7 349.73424,78.375 349.65924,79.05 C349.58424,79.35 349.50924,79.65 349.73424,79.875 C349.65924,80.325 349.43424,80.55 349.20924,80.85 C349.20924,81 349.20924,81.15 349.28424,81.3 C349.20924,81.6 349.05924,81.75 348.98424,81.9 C348.83424,82.425 349.20924,82.95 348.83424,83.4 C348.90924,83.775 348.98424,84.075 348.98424,84.375 L348.98424,84.6 C348.60924,85.35 348.53424,86.1 348.68424,86.925 C348.75924,87.375 348.68424,87.45 348.15924,87.825 C348.00924,88.275 348.00924,88.8 348.00924,89.325 C348.00924,89.625 348.08424,90 348.08424,90.3 C348.08424,90.6 348.08424,90.825 347.78424,91.125 C347.93424,90.525 347.70924,90.075 347.70924,89.55 C347.70924,89.1 347.70924,88.575 347.63424,88.125 C347.33424,88.575 347.25924,89.25 346.95924,89.55 C346.80924,89.925 346.95924,90.15 346.95924,90.45 C346.88424,90.6 346.73424,90.375 346.65924,90.45 C346.20924,90.675 346.35924,91.05 346.43424,91.35 C345.98424,92.25 345.38424,93 345.00924,93.9 C344.93424,93.45 345.15924,93.15 345.23424,92.775 C344.93424,92.925 344.70924,93.15 344.40924,93.075 C344.18424,93.3 344.25924,93.525 344.18424,93.675 C343.80924,94.2 343.35924,94.5 342.83424,94.8 L342.60924,94.575 C342.53424,94.875 342.30924,95.025 342.00924,95.175 C341.55924,95.1 340.95924,95.1 340.58424,95.325 C339.83424,95.625 339.08424,95.7 338.33424,95.85 C337.05924,96.075 335.78424,95.925 334.50924,95.775 C332.48424,95.55 330.60924,95.025 328.73424,94.275 C327.68424,93.9 326.63424,93.375 325.73424,92.7 L324.15924,91.575 C323.33424,90.825 322.73424,89.925 322.13424,89.025 C321.68424,88.275 321.23424,87.525 320.85924,86.7 C320.33424,85.5 319.88424,84.225 319.43424,83.025 C319.05924,82.2 318.83424,81.3 318.68424,80.475 C318.38424,78.9 318.00924,77.4 317.85924,75.825 C317.55924,72.75 317.48424,69.6 317.48424,66.45 L317.48424,63.525 C317.48424,62.4 317.48424,61.2 317.55924,60 C317.78424,58.5 317.70924,57 317.85924,55.5 C317.93424,53.7 318.00924,51.975 318.15924,50.175 C318.23424,49.425 318.30924,48.675 318.45924,47.925 C318.53424,47.55 318.30924,47.175 318.45924,46.725 C319.50924,46.875 320.63424,46.95 321.68424,47.4 C322.20924,47.55 322.80924,47.7 323.33424,47.925 C324.45924,48.3 324.90924,48.975 324.90924,50.175 C324.98424,50.775 325.05924,51.525 325.05924,52.2 C325.13424,53.175 325.05924,54.225 325.13424,55.2 C325.13424,56.175 325.05924,57.15 325.20924,58.05 C325.35924,59.1 325.28424,60.075 325.50924,61.05 C325.65924,61.65 325.58424,62.325 325.65924,62.925 C325.65924,63.6 325.65924,64.275 325.73424,64.95 L325.73424,65.85 C325.58424,66.825 325.73424,67.8 325.88424,68.775 C325.95924,69.3 326.10924,69.825 325.95924,70.35 C325.88424,70.65 326.03424,71.025 326.03424,71.325 C326.33424,72.375 326.25924,73.5 326.40924,74.55 C326.48424,75.45 326.48424,76.275 326.63424,77.175 C326.70924,77.775 326.63424,78.525 326.63424,79.2 C326.70924,79.65 326.63424,80.175 326.85924,80.625 C326.93424,80.925 326.78424,81.15 326.85924,81.375 C327.08424,81.9 327.15924,82.425 327.38424,82.875 C327.60924,83.4 327.75924,83.85 327.90924,84.375 C328.35924,85.575 328.95924,86.775 329.40924,87.975 C329.48424,88.125 329.63424,88.275 329.70924,88.425 C330.53424,89.475 331.20924,90.525 332.25924,91.275 C332.85924,91.725 333.53424,92.025 334.28424,92.25 C334.65924,92.325 335.10924,92.475 335.63424,92.4 C336.00924,91.95 336.45924,91.425 336.75924,90.825 C337.50924,89.25 338.03424,87.6 338.40924,85.875 C339.08424,83.1 339.30924,80.325 339.53424,77.475 C339.60924,76.65 339.83424,75.9 339.83424,75.075 C339.90924,74.475 339.98424,73.8 339.98424,73.125 C339.98424,72.45 339.98424,71.775 340.13424,71.1 L340.13424,70.2 C340.05924,69.225 340.20924,68.325 340.35924,67.425 C340.35924,67.05 340.28424,66.675 340.35924,66.225 C340.43424,65.175 340.50924,64.125 340.58424,63 C340.73424,61.575 340.58424,60.225 340.58424,58.8 C340.58424,58.05 340.58424,57.3 340.73424,56.55 C340.80924,56.1 340.80924,55.575 340.88424,55.125 C340.95924,54.9 341.10924,54.675 341.18424,54.525 C341.25924,54.225 341.10924,54.075 341.10924,53.85 C341.25924,53.55 341.18424,53.175 341.55924,52.95 C341.55924,52.725 341.40924,52.725 341.33424,52.725 C341.10924,52.35 341.25924,52.05 341.40924,51.75 C341.85924,50.625 342.60924,49.65 343.58424,48.9 C343.58424,48.9 343.65924,48.9 343.73424,48.825 C343.88424,48.975 343.88424,49.2 344.10924,49.35 C344.55924,49.65 345.00924,49.95 345.53424,50.25 C346.13424,50.025 346.65924,50.4 347.18424,50.25 C347.33424,50.325 347.33424,50.475 347.33424,50.55 C347.33424,50.775 347.18424,50.775 347.03424,50.85 C347.18424,50.925 347.25924,51 347.33424,51.075 C347.55924,51.075 347.63424,50.85 347.85924,50.925 C347.85924,51.15 347.70924,51.3 347.78424,51.525 C347.63424,51.45 347.63424,51.15 347.25924,51.15 C347.18424,51.3 346.88424,51.375 346.73424,51.6 C347.03424,51.75 347.40924,51.6 347.63424,51.75 C347.70924,51.6 347.78424,51.6 347.78424,51.525 Z M347.78424,53.775 C347.48424,54.075 346.95924,53.7 346.65924,54.225 C346.73424,54.375 346.95924,54.375 347.10924,54.45 C347.18424,54.375 347.33424,54.3 347.33424,54.3 C347.63424,54.225 347.70924,54.45 347.93424,54.375 L348.08424,54.225 C348.00924,54.075 348.00924,53.925 347.78424,53.775 Z M350.03424,64.425 C349.95924,64.8 349.88424,65.175 349.88424,65.55 C350.10924,65.7 350.18424,65.625 350.25924,65.475 C350.25924,65.175 350.33424,64.875 350.40924,64.575 C350.40924,64.425 350.25924,64.35 350.03424,64.425 Z M342.15924,53.1 C342.00924,53.175 341.85924,53.25 341.93424,53.475 C342.23424,53.475 342.60924,53.475 342.83424,53.175 C342.53424,53.025 342.38424,53.025 342.15924,53.1 Z M342.68424,53.7 C342.83424,54 343.05924,54.075 343.20924,53.925 C343.35924,53.85 343.43424,53.775 343.35924,53.625 C343.13424,53.55 342.98424,53.55 342.68424,53.7 Z M347.93424,51.675 C348.15924,51.9 348.30924,51.975 348.45924,51.75 C348.30924,51.525 348.15924,51.6 347.93424,51.675 Z M350.25924,63.9 C350.40924,63.675 350.33424,63.525 350.18424,63.3 C350.18424,63.525 350.10924,63.675 350.25924,63.9 Z M379.338044,74.175 C379.713044,74.4 379.863044,74.7 380.013044,75 C380.238044,75.45 380.463044,75.825 380.688044,76.275 C380.838044,76.65 381.213044,77.025 381.138044,77.55 C381.513044,77.85 381.588044,78.225 381.513044,78.675 C381.438044,78.825 381.588044,78.975 381.738044,79.05 C381.663044,79.65 381.963044,80.25 382.113044,80.775 C382.113044,81.075 382.188044,81.3 382.113044,81.525 C382.113044,81.675 382.188044,81.825 382.263044,81.975 C382.263044,82.5 382.038044,82.95 381.963044,83.4 C381.888044,83.925 382.038044,84.375 381.963044,84.9 C381.963044,84.975 382.038044,85.05 382.038044,85.125 C381.963044,85.275 381.963044,85.425 381.963044,85.575 C381.888044,86.1 381.888044,86.55 381.663044,86.925 L381.663044,87.225 C381.663044,87.45 381.588044,87.675 381.363044,87.825 L381.363044,87.975 C381.288044,88.35 381.138044,88.65 381.063044,89.025 C380.763044,89.625 380.238044,90 379.788044,90.375 C379.488044,90.45 379.188044,90.75 378.813044,90.975 C378.438044,91.2 378.138044,91.575 377.838044,91.95 C377.688044,92.175 377.538044,92.4 377.238044,92.55 C377.013044,92.625 376.863044,92.775 376.713044,92.925 C376.638044,93 376.638044,93.075 376.638044,93.15 C375.963044,93.675 375.288044,94.05 374.613044,94.425 C374.463044,94.5 374.313044,94.5 374.238044,94.5 C373.788044,94.725 373.488044,95.025 372.963044,95.1 C372.888044,95.1 372.888044,95.325 372.738044,95.4 C372.588044,95.4 372.513044,95.325 372.288044,95.325 C372.213044,95.475 371.913044,95.55 371.688044,95.625 C371.388044,95.625 371.163044,95.7 370.863044,95.775 C370.713044,95.775 370.638044,95.775 370.488044,95.85 C370.263044,95.925 370.113044,95.775 369.888044,95.7 C369.813044,95.7 369.738044,95.85 369.588044,95.85 C369.513044,95.775 369.438044,95.775 369.288044,95.85 C368.988044,95.925 368.688044,95.775 368.388044,95.7 L367.488044,95.475 L367.263044,95.475 C367.188044,95.025 366.813044,94.8 366.363044,94.725 L366.213044,94.725 C365.688044,94.5 365.088044,94.35 364.488044,94.125 C364.338044,93.9 364.113044,93.675 363.738044,93.6 C363.588044,93.525 363.513044,93.45 363.363044,93.375 C363.138044,93.225 362.913044,93.15 362.613044,93 L361.938044,92.55 C361.788044,92.4 361.638044,92.325 361.413044,92.25 C361.113044,92.175 360.888044,91.95 360.738044,91.725 C360.513044,91.725 359.838044,91.275 359.763044,91.05 C359.388044,91.05 359.088044,90.825 358.863044,90.6 C358.713044,90.375 358.413044,90.225 358.188044,90.075 L357.513044,89.625 C357.288044,89.55 357.138044,89.4 356.988044,89.25 C356.838044,89.1 356.688044,88.95 356.538044,88.95 C356.388044,88.875 356.463044,88.725 356.463044,88.65 C356.388044,88.575 356.313044,88.65 356.313044,88.65 C355.938044,88.275 355.713044,87.825 355.188044,87.6 C355.113044,87.45 355.038044,87.225 354.888044,87.15 C354.588044,86.625 354.138044,86.175 353.763044,85.65 C353.838044,85.5 353.988044,85.575 354.063044,85.425 C354.063044,85.275 354.138044,85.125 354.288044,84.975 C354.363044,84.825 354.213044,84.75 354.213044,84.675 C354.363044,84.6 354.588044,84.75 354.663044,84.6 C354.813044,84.675 354.888044,84.75 354.963044,84.825 C355.263044,84.675 355.563044,84.675 355.863044,84.9 C356.013044,84.825 356.238044,84.975 356.388044,84.825 C356.538044,84.825 356.613044,84.9 356.688044,84.9 C356.838044,84.9 356.913044,84.825 356.988044,84.825 C357.138044,84.9 357.363044,84.975 357.513044,84.9 C357.813044,85.275 358.338044,85.125 358.638044,85.5 L358.938044,85.5 C359.013044,85.575 359.088044,85.65 359.238044,85.725 C359.538044,85.725 359.763044,85.875 360.063044,86.025 C360.288044,86.175 360.513044,86.325 360.813044,86.4 C361.113044,86.475 361.413044,86.7 361.788044,86.85 C362.163044,87 362.613044,87.075 363.063044,87.15 C364.113044,87.225 365.088044,87.225 366.138044,87.15 C366.438044,87.075 366.663044,87.075 366.963044,86.925 C368.163044,86.55 369.288044,86.025 370.338044,85.35 C371.088044,84.9 371.763044,84.3 372.438044,83.7 C373.188044,83.025 373.788044,82.2 374.013044,81.15 C374.163044,80.25 374.313044,79.275 374.313044,78.375 C374.313044,77.475 374.163044,76.575 374.013044,75.675 C373.863044,74.925 373.563044,74.325 373.038044,73.8 C372.663044,73.35 372.288044,72.9 371.913044,72.525 C371.538044,72.15 371.163044,71.85 370.863044,71.475 C370.788044,71.4 370.638044,71.25 370.488044,71.25 C369.963044,71.1 369.438044,70.875 368.913044,70.5 C368.838044,70.5 368.763044,70.575 368.613044,70.5 C368.088044,70.125 367.413044,70.05 366.888044,69.525 C366.513044,69.375 366.138044,69.225 365.838044,68.925 C365.613044,68.775 365.313044,68.55 365.013044,68.475 C364.188044,68.25 363.588044,67.725 362.913044,67.275 C362.313044,66.9 361.788044,66.45 361.338044,66 L360.438044,65.1 C360.363044,64.95 360.213044,64.875 360.288044,64.725 C359.913044,64.5 359.763044,64.125 359.613044,63.75 C359.613044,63.75 359.538044,63.675 359.538044,63.6 C359.088044,62.85 358.638044,62.1 358.338044,61.275 C358.113044,60.825 358.113044,60.45 358.038044,60 C357.888044,59.4 357.963044,58.875 358.038044,58.275 C358.038044,57.9 358.188044,57.525 358.263044,57.15 C358.713044,55.8 359.538044,54.525 360.138044,53.25 C360.438044,52.725 360.813044,52.275 361.263044,51.9 C361.863044,51.15 362.538044,50.55 363.213044,49.95 C363.663044,49.575 364.188044,49.35 364.713044,49.05 C365.163044,48.75 365.538044,48.525 366.063044,48.225 C366.588044,48 367.038044,47.55 367.713044,47.475 L367.788044,47.475 C368.313044,47.1 368.838044,47.175 369.363044,47.175 C369.588044,47.175 369.888044,47.1 370.113044,47.1 C370.788044,47.1 371.463044,47.4 372.063044,47.7 C372.513044,47.85 372.963044,48.075 373.488044,48.3 C373.788044,48.375 374.163044,48.525 374.463044,48.825 C374.613044,49.05 374.913044,48.975 375.213044,49.125 C375.438044,49.5 375.888044,49.575 376.263044,49.8 C376.788044,50.325 377.463044,50.625 377.988044,51.225 C378.138044,51.45 378.363044,51.675 378.438044,51.975 C378.438044,52.125 378.588044,52.275 378.663044,52.425 L378.663044,53.025 C378.738044,53.4 378.588044,53.625 378.363044,53.85 C377.913044,54.45 377.313044,54.675 376.563044,54.675 C375.963044,54.675 375.288044,54.825 374.688044,55.2 C374.463044,55.35 374.088044,55.425 373.788044,55.575 C373.338044,55.65 372.963044,55.8 372.588044,56.1 C372.438044,56.175 372.213044,56.325 371.988044,56.325 C371.913044,56.4 371.838044,56.4 371.763044,56.475 C371.538044,56.7 371.313044,56.85 371.013044,56.925 C370.788044,57.075 370.563044,57.225 370.413044,57.45 C370.113044,57.825 369.813044,58.05 369.513044,58.35 C369.288044,58.5 369.138044,58.725 368.913044,58.875 C368.838044,58.95 368.763044,59.025 368.613044,59.1 C368.388044,59.175 368.238044,59.4 368.088044,59.55 C367.788044,60 367.413044,60.525 367.188044,61.05 C367.038044,61.275 366.888044,61.5 366.663044,61.725 C366.663044,62.025 366.438044,62.25 366.288044,62.55 C365.988044,63.075 365.763044,63.6 365.763044,64.2 C365.838044,64.35 365.688044,64.575 365.838044,64.725 C366.738044,65.1 367.563044,65.4 368.463044,65.85 C369.063044,66.075 369.738044,66.375 370.263044,66.675 C371.238044,67.2 372.288044,67.65 373.188044,68.325 C373.488044,68.625 373.863044,68.775 374.238044,69 C374.538044,69.225 374.763044,69.45 375.063044,69.6 C375.588044,69.9 375.888044,70.275 376.263044,70.575 C376.563044,70.8 376.713044,71.025 376.938044,71.25 C377.238044,71.625 377.613044,71.85 377.838044,72.225 C378.363044,72.75 378.888044,73.35 379.338044,73.95 L379.338044,74.175 Z M362.388044,65.85 C362.313044,66 362.388044,66.075 362.463044,66.15 C362.538044,66.15 362.613044,66.225 362.688044,66.15 C362.763044,66.075 362.838044,66 362.763044,65.925 C362.613044,65.85 362.538044,65.775 362.388044,65.85 Z" id="Bleat-at-us-Copy"></path>
            </g>
        </g>
    </g>
</svg>